<svg width="435" height="722" viewBox="0 0 435 722" fill="none" xmlns="http://www.w3.org/2000/svg">
<g opacity="0.2">
<path d="M469.304 363.609C474.184 360.719 482.048 342.722 479.68 336.505C478.278 332.783 475.543 328.769 470.352 325.399C457.097 316.844 441.227 305.689 402.432 289.423C363.729 273.202 326.501 261.981 315.417 267.924C304.242 273.824 301.575 311.152 295.887 325.995C290.292 340.882 283.605 347.101 304.693 351.792C325.781 356.483 331.17 349.421 348.537 355.514C365.996 361.651 385.783 363.122 392.151 372.596C398.519 382.07 440.058 384.925 445.817 378.038C450.641 372.406 459.952 369.242 469.304 363.609Z" stroke="white" stroke-opacity="0.2" stroke-width="2" stroke-miterlimit="10"/>
<path d="M539.725 378.816C549.843 370.377 570.636 324.903 568.109 310.914C566.657 302.529 562.681 293.738 553.675 287.199C530.885 270.835 503.96 249.113 434.72 222.357C365.572 195.645 297.762 180.659 274.613 198.191C251.42 215.816 234.51 305.801 218.995 343.255C203.479 380.708 188.915 397.562 227.748 402.302C266.626 406.949 279.189 388.352 310.661 397.633C342.133 406.914 379.67 404.134 389.01 424.752C398.349 445.37 476.978 439.234 490.187 420.944C501.308 405.625 519.981 395.135 539.725 378.816Z" stroke="white" stroke-opacity="0.2" stroke-width="2" stroke-miterlimit="10"/>
<path d="M714.969 317.926C714.969 317.926 712.893 417.67 691.959 445.081C671.024 472.492 583.267 484.029 560.761 506.167C538.163 528.262 494.605 567.57 439.139 538.977C383.673 510.384 377.706 533.922 355.477 556.192C333.341 578.506 337.838 603.842 325.084 606.39C312.331 608.937 251.718 552.323 229.965 557.616C208.213 562.909 164.167 491.183 101.995 479.1C39.824 467.018 49.2892 370.782 85.7565 320.186C122.224 269.589 141.783 98.9204 196.06 82.8094C250.245 66.6545 550.46 134.466 619.258 202.21C687.92 270.001 736.389 291.877 714.969 317.926Z" stroke="white" stroke-opacity="0.2" stroke-width="2" stroke-miterlimit="10"/>
<path d="M644.413 423.644C660.424 410.419 628.449 320.656 624.479 298.739C622.107 285.616 654.394 292.228 640.376 282.179C604.633 256.384 562.181 222.311 453.434 180.31C344.688 138.309 238.101 114.65 201.667 142.287C165.233 169.924 186.448 203.196 162.04 262.006C137.631 320.817 84.9227 422.556 146.415 426.055C224.895 430.487 247.326 480.747 296.744 495.377C346.206 509.915 434.199 471.894 448.811 504.295C463.515 536.74 504.837 495.466 525.564 466.824C543.135 442.683 613.472 449.248 644.413 423.644Z" stroke="white" stroke-opacity="0.2" stroke-width="2" stroke-miterlimit="10"/>
</g>
</svg>
