<svg width="49" height="45" viewBox="0 0 49 45" fill="none" xmlns="http://www.w3.org/2000/svg">
<path d="M38.272 45C35.3424 45 32.7321 43.6131 30.4222 40.8205C28.1123 38.0466 26.9668 34.3732 26.9668 29.8001C26.9668 25.9204 29.0701 19.9792 33.2579 11.995C37.4644 3.99209 40.5818 0 42.6288 0C43.7743 0 44.3565 0.59975 44.3565 1.78051C44.3565 2.09913 43.1546 4.68555 40.7696 9.55852C38.3659 14.4315 37.1828 18.2549 37.1828 20.9913C37.1828 23.1091 38.5349 24.8521 41.2579 26.2016C43.9621 27.551 45.7837 28.9567 46.6851 30.4186C47.5865 31.8805 48.0372 33.4736 48.0372 35.1604C48.0372 38.2153 47.1358 40.6331 45.333 42.3761C43.4926 44.1379 41.1452 45 38.272 45Z" fill="white"/>
<path d="M11.3239 45C8.39437 45 5.76526 43.6131 3.47418 40.8205C1.16432 38.0466 0 34.3732 0 29.8188C0 25.9392 2.10329 19.9979 6.29108 12.0137C10.4977 3.99209 13.615 0 15.662 0C16.8075 0 17.3897 0.59975 17.3897 1.78051C17.3897 2.09913 16.1878 4.68555 13.8028 9.55852C11.3991 14.4315 10.216 18.2549 10.216 20.9913C10.216 23.1091 11.5681 24.8521 14.2911 26.2016C16.9953 27.551 18.8169 28.9567 19.7183 30.4186C20.6197 31.8805 21.0704 33.4736 21.0704 35.1604C21.0704 38.2153 20.169 40.6331 18.3662 42.3761C16.5258 44.1379 14.1784 45 11.3239 45Z" fill="white"/>
</svg>
