<svg width="117" height="110" viewBox="0 0 117 110" fill="none" xmlns="http://www.w3.org/2000/svg">
<g opacity="0.2">
<path d="M23.7836 9.39599e-05C30.9189 9.33361e-05 37.2766 3.37806 42.9024 10.1797C48.5283 16.9356 51.3184 25.8827 51.3184 37.0208C51.3184 46.47 46.1956 60.9405 35.9959 80.3867C25.7504 99.8785 18.1578 109.602 13.1722 109.602C10.3822 109.602 8.96429 108.141 8.96429 105.265C8.96429 104.489 11.8916 98.1895 17.7004 86.321C23.5549 74.4524 26.4365 65.1402 26.4365 58.4755C26.4365 53.3173 23.1433 49.072 16.5112 45.7853C9.9248 42.4986 5.48814 39.075 3.29268 35.5144C1.09722 31.9539 -0.000510667 28.0738 -0.000511027 23.9654C-0.000511677 16.5248 2.19495 10.6361 6.58587 6.39085C11.0683 2.09991 16.7856 9.45717e-05 23.7836 9.39599e-05Z" fill="white"/>
<path d="M89.4195 9.39639e-05C96.5548 9.33401e-05 102.958 3.37806 108.538 10.1797C114.164 16.9356 117 25.8827 117 36.9752C117 46.4244 111.877 60.8949 101.678 80.341C91.432 99.8785 83.8394 109.602 78.8539 109.602C76.0638 109.602 74.6459 108.141 74.6459 105.265C74.6459 104.489 77.5732 98.1895 83.382 86.321C89.2366 74.4524 92.1181 65.1402 92.1181 58.4755C92.1181 53.3173 88.8249 49.072 82.1928 45.7853C75.6064 42.4986 71.1698 39.075 68.9743 35.5144C66.7788 31.9539 65.6811 28.0738 65.6811 23.9654C65.6811 16.5248 67.8766 10.6361 72.2675 6.39085C76.7499 2.09991 82.4672 9.45717e-05 89.4195 9.39639e-05Z" fill="white"/>
</g>
</svg>
