<svg width="20" height="24" viewBox="0 0 20 24" fill="none" xmlns="http://www.w3.org/2000/svg">
<path d="M13.6252 15.9613C14.2675 16.9741 14.404 18.0348 14.38 19.1433C14.3559 20.5947 14.3719 22.0382 14.3719 23.4896C14.3719 23.6332 14.3719 23.7767 14.3719 23.9601C14.2274 23.9761 14.115 23.992 13.9946 23.992C12.1077 23.992 10.2209 23.9841 8.33411 24C8.02098 24 7.9166 23.9123 7.92463 23.5933C7.94069 22.6762 7.93266 21.767 7.93266 20.81C7.62756 20.8499 7.3626 20.8818 7.10567 20.9137C4.80937 21.1849 3.17949 20.2518 2.16783 18.2023C1.80653 17.4686 1.28464 16.8146 0.802901 16.1447C0.658379 15.9374 0.385392 15.8257 0.184667 15.6503C0.0963481 15.5705 0.056203 15.435 0 15.3233C0.120435 15.2755 0.232841 15.1877 0.353276 15.1798C1.47734 15.108 2.28827 15.6343 2.93059 16.5036C3.30795 17.014 3.67728 17.5563 4.15903 17.9471C5.2028 18.8004 6.4232 18.8721 7.68376 18.4734C7.78011 18.4415 7.90857 18.3059 7.9166 18.2102C7.98886 17.4207 8.14141 16.6631 8.60709 16.073C7.69982 15.7938 6.78451 15.6024 5.93344 15.2356C3.52473 14.1989 2.33644 12.3168 2.28024 9.73291C2.24812 8.48086 2.2963 7.23677 2.64154 6.01661C2.84227 5.31482 3.1554 4.68481 3.68531 4.15846C3.78166 4.06276 3.80575 3.81554 3.75758 3.67997C3.38021 2.57943 3.42839 1.48687 3.73349 0.386338C3.83787 0.00354266 4.02253 -0.0443067 4.36778 0.0673418C5.35535 0.386338 6.0619 1.04825 6.69619 1.82182C6.82466 1.97334 6.93706 2.13284 7.08158 2.31626C8.34214 1.59055 9.73116 1.5746 11.1282 1.5746C12.5092 1.5746 13.8902 1.5746 15.1427 2.30031C15.512 1.88562 15.8653 1.46295 16.2587 1.0642C16.7244 0.593685 17.2784 0.258739 17.9207 0.051392C18.2419 -0.0522816 18.4266 -0.020382 18.547 0.346463C18.9003 1.447 18.9645 2.53956 18.5229 3.62414C18.4185 3.88732 18.4587 4.03884 18.6594 4.24619C19.2536 4.85228 19.6149 5.60192 19.7433 6.43131C19.9842 7.98641 20.1367 9.54152 19.8236 11.1046C19.4864 12.7873 18.5229 14.0234 17.0536 14.8767C16.0339 15.4988 14.9018 15.8497 13.6252 15.9613Z" fill="#5CC3F6"/>
</svg>
