<svg width="20" height="21" viewBox="0 0 20 21" fill="none" xmlns="http://www.w3.org/2000/svg">
<path d="M0.332046 6.97318H4.49539V21H0.332046V6.97318ZM2.40095 0C1.07276 0 0 1.12644 0 2.52107C0 3.91571 1.07276 5.04215 2.40095 5.04215C3.72913 5.04215 4.8019 3.91571 4.8019 2.52107C4.82744 1.12644 3.72913 0 2.40095 0ZM15.0698 6.62452C13.052 6.62452 11.6982 7.77778 11.1363 8.87739H11.0852V6.97318H7.10068V21H11.2385V14.0536C11.2385 12.2299 11.5705 10.4598 13.7161 10.4598C15.836 10.4598 15.8616 12.5517 15.8616 14.1877V21H19.9994V13.3027C20.0249 9.52107 19.2587 6.62452 15.0698 6.62452Z" fill="#5CC3F6"/>
</svg>
