<svg width="21" height="21" viewBox="0 0 21 21" fill="none" xmlns="http://www.w3.org/2000/svg">
<path d="M15.1071 0H5.89286C2.65179 0 0 2.65179 0 5.89286V15.1071C0 18.3482 2.65179 21 5.89286 21H15.1071C18.3482 21 21 18.3482 21 15.1071V5.89286C21 2.65179 18.3482 0 15.1071 0ZM19.0714 15.1071C19.0714 17.3036 17.3036 19.0714 15.1071 19.0714H5.89286C3.69643 19.0714 1.92857 17.3036 1.92857 15.1071V5.89286C1.92857 3.69643 3.69643 1.92857 5.89286 1.92857H15.1071C17.2768 1.92857 19.0714 3.69643 19.0714 5.89286V15.1071ZM10.5 5.14286C7.55357 5.14286 5.14286 7.55357 5.14286 10.5C5.14286 13.4464 7.55357 15.8571 10.5 15.8571C13.4464 15.8571 15.8571 13.4464 15.8571 10.5C15.8571 7.55357 13.4464 5.14286 10.5 5.14286ZM10.5 13.9286C8.59821 13.9286 7.07143 12.4018 7.07143 10.5C7.07143 8.59822 8.59821 7.07143 10.5 7.07143C12.4018 7.07143 13.9286 8.59822 13.9286 10.5C13.9286 12.4018 12.375 13.9286 10.5 13.9286ZM17.3571 4.82143C17.3571 5.54464 16.7679 6.10714 16.0714 6.10714C15.3482 6.10714 14.7857 5.54464 14.7857 4.82143C14.7857 4.09821 15.375 3.53571 16.0714 3.53571C16.7679 3.53571 17.3571 4.125 17.3571 4.82143Z" fill="#5CC3F6"/>
</svg>
