<svg width="20" height="27" viewBox="0 0 20 27" fill="none" xmlns="http://www.w3.org/2000/svg">
<path d="M10 0C4.48568 0 0 4.43012 0 9.875C0 17.1602 9.22635 25.819 9.61917 26.1844C9.72656 26.2835 9.86328 26.3333 10 26.3333C10.1367 26.3333 10.2734 26.2835 10.3809 26.1844C10.7736 25.819 20 17.1602 20 9.875C20 4.43012 15.5143 0 10 0ZM10 15.3611C6.93682 15.3611 4.44443 12.8999 4.44443 9.875C4.44443 6.85011 6.93687 4.38887 10 4.38887C13.0631 4.38887 15.5556 6.85016 15.5556 9.875C15.5556 12.8998 13.0632 15.3611 10 15.3611Z" fill="white"/>
</svg>
