<svg width="20" height="21" viewBox="0 0 20 21" fill="none" xmlns="http://www.w3.org/2000/svg">
<path d="M19.6667 9.95245C19.4357 9.70388 19.0737 9.58242 18.789 9.56716V1.84154C18.789 0.826073 18.0005 0 17.0312 0H2.96885C1.99956 0 1.21105 0.826073 1.21105 1.84154V9.58087C0.916289 9.59008 0.560628 9.71063 0.336685 9.95315C-0.0878805 10.4111 -0.113622 11.0993 0.274889 11.5891L0.448833 11.8103C1.1675 12.7238 2.04014 13.7495 3.53017 14.4275C3.13365 17.4368 3.86376 19.0511 4.5693 19.8844C5.16152 20.5845 6.2058 21 7.18251 21C7.55614 21 7.92008 20.9389 8.24453 20.81C8.9878 20.5144 9.41409 19.8952 9.41409 19.1111V15.5389C10.9533 15.808 11.0815 15.8302 11.0832 15.8302C11.0832 15.8302 11.082 15.8296 11.0815 15.8296C12.4169 16.0682 13.2753 15.0066 13.5024 14.6834C13.8217 14.2434 14.3304 12.9966 14.0609 12.1076C13.9379 11.7011 13.6627 11.4086 13.2867 11.2845C12.3523 10.9758 11.9821 11.7431 11.8248 12.071C11.7263 12.2766 11.6605 12.4037 11.5707 12.4625C11.4534 12.4421 10.9917 12.1975 10.3519 11.8594L9.51651 11.4188C9.15718 11.2306 8.75492 11.1311 8.35207 11.1311L5.71596 11.1329C4.7207 11.0543 3.76489 10.8093 2.38291 10.0562V1.84154C2.38291 1.50286 2.64557 1.22769 2.96885 1.22769H17.0312C17.3545 1.22769 17.6171 1.50286 17.6171 1.84154V10.0509C16.4725 10.6787 15.6541 10.9515 14.8749 11.0697C15.0039 11.2661 15.1093 11.4871 15.1796 11.7326C15.6132 13.1568 14.8632 14.8387 14.4297 15.428C14.1718 15.8086 13.1406 17.0977 11.4648 17.0977C11.2774 17.0977 11.0898 17.0731 10.8906 17.0363V17.024C10.7968 17.0117 10.7031 16.9995 10.5859 16.9749V19.1111C10.5859 19.7495 10.9727 20.3388 11.6289 20.6826C12.0039 20.8789 12.4726 20.9895 12.9765 20.9895C13.6093 20.9895 14.3007 20.8053 14.9218 20.3142C15.9061 19.5653 16.9374 17.9325 16.4687 14.4213C17.9569 13.7461 18.8346 12.7271 19.5495 11.8063L19.7252 11.5853C20.112 11.0942 20.0886 10.4067 19.6667 9.95245Z" fill="white"/>
<path d="M4.72656 7.44806C4.72656 8.80225 5.77768 9.90345 7.07029 9.90345C8.36289 9.90345 9.41401 8.80225 9.41401 7.44806C9.41401 6.09388 8.36289 4.99268 7.07029 4.99268C5.77768 4.99268 4.72656 6.09388 4.72656 7.44806Z" fill="white"/>
<path d="M12.9297 4.99268C11.6371 4.99268 10.5859 6.09388 10.5859 7.44806C10.5859 8.80225 11.6371 9.90345 12.9297 9.90345C14.2223 9.90345 15.2734 8.80225 15.2734 7.44806C15.2734 6.09388 14.2223 4.99268 12.9297 4.99268Z" fill="white"/>
</svg>
