<svg width="21" height="20" viewBox="0 0 21 20" fill="none" xmlns="http://www.w3.org/2000/svg">
<path d="M19.4223 12.1233C20.8705 5.61556 15.1694 -0.296365 8.47418 0.838525C4.83953 -1.41709 0 1.13183 0 5.45641C0 6.46215 0.277473 7.40372 0.759926 8.21531C-0.585777 14.738 5.162 20.5649 11.8513 19.3526C12.6313 19.765 13.5212 20 14.4669 20C18.5907 20 21.2313 15.7229 19.4223 12.1233ZM10.079 16.5662C8.12754 16.5662 6.22106 16.0954 5.09284 14.4839C3.41134 12.1058 5.62862 10.9159 6.71685 11.8225C7.62509 12.5882 7.34012 14.4405 10.0074 14.4405C11.1831 14.4405 12.6346 13.9389 12.6346 12.7732C12.6346 10.4276 7.43094 11.5375 5.36198 8.98023C4.60205 8.04366 4.45873 6.39132 5.39198 5.1931C7.01849 3.09997 11.7914 2.97248 13.8437 4.55316C15.7385 6.01969 15.2269 7.96617 13.6978 7.96617C11.8588 7.96617 12.8254 5.55973 9.85654 5.55973C7.70425 5.55973 6.85767 7.09042 8.37335 7.83535C10.3907 8.83692 15.6643 8.52445 15.6643 12.5041C15.6576 15.3013 12.9587 16.5662 10.079 16.5662Z" fill="white"/>
</svg>
