<svg width="31" height="25" viewBox="0 0 31 25" fill="none" xmlns="http://www.w3.org/2000/svg">
<path d="M30.3221 2.91661C29.1945 3.41124 27.993 3.7391 26.7403 3.89829C28.029 3.12887 29.0126 1.91977 29.475 0.462413C28.2735 1.17877 26.9469 1.68477 25.5331 1.96715C24.3923 0.752368 22.7662 0 20.9924 0C17.5508 0 14.7801 2.79343 14.7801 6.21793C14.7801 6.71067 14.8218 7.18445 14.9242 7.63549C9.75615 7.38344 5.18319 4.9065 2.11118 1.13329C1.57486 2.0638 1.26026 3.12887 1.26026 4.27542C1.26026 6.42829 2.36892 8.33669 4.02147 9.44156C3.02274 9.4226 2.04295 9.13265 1.21289 8.67592C1.21289 8.69487 1.21289 8.71951 1.21289 8.74415C1.21289 11.765 3.36765 14.2741 6.1933 14.8522C5.6873 14.9905 5.13581 15.0568 4.56348 15.0568C4.1655 15.0568 3.76374 15.0341 3.3866 14.9507C4.19204 17.4125 6.47757 19.2223 9.19519 19.2811C7.08022 20.9355 4.39481 21.9324 1.48768 21.9324C0.977889 21.9324 0.488944 21.9096 0 21.8471C2.75363 23.6228 6.01705 24.6367 9.53631 24.6367C20.9753 24.6367 27.2293 15.1611 27.2293 6.94756C27.2293 6.67276 27.2198 6.40745 27.2065 6.14402C28.4403 5.26847 29.4769 4.17498 30.3221 2.91661Z" fill="#5CC3F6"/>
</svg>
