<svg width="232" height="165" viewBox="0 0 232 165" fill="none" xmlns="http://www.w3.org/2000/svg">
<path d="M156.443 85.9613L164.568 94.6535L226.38 68.7583L156.443 85.9613Z" fill="#5CC3F6"/>
<path d="M226.938 68.224L140.519 90.2202L148.881 73.8446L157.945 72.7175L158.591 72.6371L158.347 72.0338L154.727 63.0866L160.889 54.6336L226.938 68.224Z" stroke="#5CC3F6"/>
<path d="M158.441 72.5132L154.717 63.3085L202.494 67.6839L158.441 72.5132Z" fill="#5CC3F6"/>
<path d="M149.243 161.237C148.563 161.207 147.884 161.168 147.204 161.13C146.517 161.091 145.996 160.506 146.034 159.826C146.073 159.147 146.693 158.549 147.338 158.657C150.546 158.84 153.735 158.926 157.235 158.94C157.251 158.941 157.275 158.942 157.291 158.943C157.955 158.972 158.477 159.518 158.479 160.184C158.48 160.865 157.916 161.426 157.235 161.42C154.424 161.413 151.812 161.352 149.243 161.237ZM137.296 160.212C137.256 160.211 137.224 160.209 137.185 160.199C133.783 159.754 130.451 159.17 127.267 158.449C126.6 158.301 126.178 157.64 126.327 156.966C126.475 156.299 127.143 155.901 127.81 156.026C130.916 156.727 134.186 157.301 137.509 157.734C138.187 157.82 138.666 158.444 138.58 159.129C138.495 159.783 137.928 160.241 137.296 160.212ZM117.897 155.765C117.778 155.76 117.652 155.739 117.535 155.694C114.323 154.552 111.199 153.185 108.25 151.643C107.647 151.323 107.411 150.576 107.731 149.972C108.051 149.361 108.806 149.133 109.401 149.453C112.242 150.942 115.257 152.257 118.36 153.362C119.008 153.589 119.34 154.301 119.113 154.948C118.932 155.463 118.426 155.789 117.897 155.765ZM100.328 146.513C100.091 146.502 99.8565 146.428 99.6494 146.277C96.9266 144.278 94.3404 142.055 91.9522 139.659C91.4667 139.178 91.4704 138.386 91.9591 137.909C92.4477 137.431 93.2322 137.427 93.7094 137.916C95.9988 140.22 98.4935 142.359 101.109 144.282C101.661 144.687 101.777 145.461 101.372 146.013C101.135 146.351 100.731 146.531 100.328 146.513ZM86.3257 132.437C85.962 132.421 85.6054 132.246 85.3741 131.927C83.3895 129.185 81.6023 126.277 80.0649 123.277C79.7514 122.669 79.9909 121.919 80.6069 121.606C81.2146 121.301 81.9644 121.54 82.2779 122.148C83.757 125.034 85.4776 127.836 87.3878 130.472C87.7907 131.029 87.6691 131.8 87.1125 132.203C86.8751 132.374 86.6024 132.449 86.3257 132.437ZM77.2844 114.764C76.7863 114.742 76.3258 114.413 76.1583 113.906C75.092 110.642 74.2981 107.312 73.8115 104.018C73.7071 103.34 74.1788 102.712 74.8568 102.607C75.543 102.495 76.1632 102.975 76.2676 103.653C76.7366 106.81 77.4969 110.005 78.5214 113.14C78.7379 113.792 78.3819 114.489 77.7306 114.705C77.578 114.754 77.4267 114.771 77.2844 114.764ZM74.1997 95.1477C73.5514 95.1188 73.0285 94.5884 73.0183 93.9305C72.9822 91.901 73.0143 89.7636 73.1114 87.5896L73.134 87.0836C73.1899 86.0088 73.2541 84.9264 73.3337 83.8526C73.3874 83.1817 73.9566 82.6764 74.6286 82.7064C74.6444 82.7071 74.6523 82.7075 74.6681 82.7082C75.3469 82.7622 75.8591 83.3555 75.8126 84.0426C75.7336 85.1005 75.663 86.1509 75.616 87.2024L75.5938 87.7004C75.4988 89.827 75.4692 91.9091 75.5078 93.8832C75.5248 94.5653 74.9766 95.1349 74.2949 95.144C74.255 95.1502 74.2234 95.1488 74.1997 95.1477Z" fill="#5CC3F6"/>
<path d="M85.4972 75.9596C83.6078 75.8752 81.7431 75.7682 79.919 75.6392C79.2398 75.593 78.7197 74.9994 78.7663 74.3123C78.8121 73.6411 79.3895 73.1282 80.0615 73.1582C80.0694 73.1585 80.0852 73.1593 80.0931 73.1596C83.2914 73.3816 86.5877 73.5368 89.99 73.6254C90.7586 73.6201 91.2154 74.2108 91.2005 74.8993C91.1856 75.5878 90.615 76.1248 89.9265 76.1099C88.431 76.0748 86.9519 76.0245 85.4972 75.9596ZM99.8644 76.1893C99.2162 76.1603 98.6857 75.6217 98.6834 74.9642C98.6742 74.2825 99.2221 73.7208 99.9117 73.712C103.122 73.6731 106.461 73.5846 109.834 73.4342C110.501 73.3927 111.103 73.9345 111.128 74.6169C111.161 75.2996 110.628 75.8778 109.945 75.9107C106.548 76.06 103.177 76.155 99.9359 76.1846C99.9119 76.1914 99.8881 76.1903 99.8644 76.1893ZM70.0275 74.6984C69.9959 74.697 69.9642 74.6956 69.9247 74.6938C66.4898 74.2711 63.1462 73.7574 59.9965 73.1572C59.3208 73.032 58.8826 72.3787 59.0075 71.711C59.1324 71.0432 59.7932 70.6133 60.4538 70.722C63.5488 71.3038 66.8372 71.8151 70.225 72.2278C70.9024 72.3135 71.3898 72.9294 71.3037 73.6147C71.2356 74.2533 70.6679 74.727 70.0275 74.6984ZM119.778 75.3279C119.161 75.3004 118.644 74.8099 118.602 74.1743C118.553 73.4909 119.071 72.8961 119.754 72.8475C122.989 72.6117 126.288 72.3313 129.654 72.0063C130.339 71.926 130.942 72.4361 131.006 73.1202C131.071 73.8043 130.576 74.4081 129.892 74.4726C126.503 74.8044 123.187 75.0841 119.929 75.3188C119.873 75.3322 119.825 75.33 119.778 75.3279ZM50.454 70.9646C50.367 70.9607 50.2725 70.9486 50.1866 70.921C47.8152 70.2764 45.5023 69.5632 43.3259 68.8085C42.3975 68.4898 41.4856 68.156 40.5898 67.815C39.9511 67.5726 39.6267 66.8531 39.8771 66.2147C40.1195 65.5759 40.8393 65.2437 41.4773 65.5019C42.3497 65.834 43.2382 66.1588 44.1433 66.4686C46.273 67.2053 48.5233 67.8999 50.8401 68.5262C51.5054 68.7064 51.8947 69.3892 51.7149 70.0466C51.5547 70.6177 51.0232 70.99 50.454 70.9646ZM31.9226 63.7603C31.7408 63.7521 31.5607 63.7045 31.3907 63.6098C28.2893 61.9266 25.4178 60.0635 22.8772 58.0648C22.3418 57.6369 22.2416 56.864 22.6699 56.3207C23.0899 55.785 23.8706 55.6852 24.4139 56.1134C26.8554 58.0286 29.6036 59.8148 32.5812 61.4291C33.1845 61.757 33.4043 62.5115 33.0846 63.1071C32.8355 63.5396 32.3812 63.7807 31.9226 63.7603ZM74.6315 64.5506C73.9516 64.5203 73.415 63.9418 73.4458 63.254L73.4652 62.8192C73.6046 59.6965 73.6201 56.5127 73.5152 53.3632C73.4902 52.6808 74.0309 52.103 74.7132 52.078C75.3722 52.044 75.9656 52.5934 75.9985 53.2761C76.1085 56.4892 76.0902 59.7362 75.9479 62.9222L75.9281 63.3649C75.8895 64.0523 75.3114 64.581 74.6315 64.5506ZM16.4168 51.4233C16.0847 51.4084 15.7508 51.2588 15.5177 50.9791C13.3071 48.3297 11.4316 45.4496 9.93579 42.4044C9.63058 41.7887 9.88548 41.0476 10.5011 40.7424C11.1244 40.4454 11.8576 40.7 12.1632 41.3077C13.5719 44.1748 15.3438 46.8918 17.4263 49.3929C17.8623 49.9194 17.7957 50.7006 17.2692 51.1365C17.0222 51.3473 16.7172 51.4367 16.4168 51.4233ZM73.9218 44.6123C73.3289 44.5858 72.8262 44.1356 72.7502 43.5302C72.3235 40.1366 71.7323 36.8783 70.9879 33.8586C70.8275 33.194 71.2297 32.5228 71.8944 32.3623C72.5597 32.1861 73.2302 32.6042 73.3907 33.2688C74.1625 36.3847 74.7656 39.7308 75.2035 43.2279C75.2921 43.9051 74.805 44.525 74.1277 44.6136C74.0565 44.6104 73.993 44.6155 73.9218 44.6123ZM7.68555 33.7249C7.14006 33.7006 6.65824 33.3147 6.53239 32.7625C6.4069 32.2024 6.28176 31.6344 6.17278 31.0591C5.82129 29.174 5.68254 27.3142 5.76198 25.5354C5.80964 24.4681 5.93636 23.4044 6.14108 22.3679C6.27421 21.6926 6.93541 21.2548 7.59454 21.3951C8.26984 21.5282 8.70013 22.1812 8.56734 22.8485C8.38409 23.7593 8.27092 24.6969 8.22855 25.6455C8.15759 27.2346 8.289 28.904 8.60943 30.5976C8.71192 31.1409 8.82266 31.6765 8.94921 32.2129C9.10139 32.8851 8.68365 33.5477 8.01935 33.7002C7.90762 33.719 7.79623 33.7299 7.68555 33.7249ZM69.0242 25.3266C68.5656 25.3062 68.1346 25.0255 67.9409 24.5733C66.6006 21.4161 65.0082 18.5804 63.2236 16.148C62.8204 15.5993 62.9344 14.8202 63.491 14.4173C64.0398 14.014 64.811 14.1277 65.2218 14.6847C67.1183 17.2725 68.806 20.2789 70.2179 23.6055C70.4908 24.2356 70.1967 24.9671 69.567 25.2321C69.3896 25.3034 69.206 25.3348 69.0242 25.3266ZM11.6043 14.9756C11.3434 14.9639 11.0782 14.8729 10.8646 14.6891C10.3378 14.2457 10.2696 13.4663 10.7051 12.9392C12.8138 10.4193 15.5258 8.22735 18.7667 6.43133C19.3676 6.1017 20.1263 6.31777 20.4559 6.91868C20.7856 7.51959 20.5698 8.27042 19.9686 8.60795C16.9877 10.2572 14.5146 12.2459 12.6062 14.5371C12.3549 14.8428 11.9838 14.9925 11.6043 14.9756ZM57.1697 9.62765C56.9405 9.61741 56.7061 9.54357 56.499 9.39174C53.9513 7.55108 51.0827 6.15555 47.9787 5.24063C47.3221 5.04495 46.9489 4.35496 47.1366 3.69794C47.3323 3.04128 48.0223 2.6681 48.6793 2.85587C52.0493 3.84604 55.1656 5.37146 57.9517 7.37327C58.5043 7.77026 58.6357 8.55243 58.2308 9.10469C57.9767 9.47357 57.5729 9.64566 57.1697 9.62765ZM28.5971 5.19099C28.0595 5.16698 27.5849 4.79724 27.4512 4.24469C27.2907 3.58004 27.693 2.90884 28.358 2.7405C31.5221 1.95499 34.8291 1.51649 38.1766 1.41249L38.5488 1.41328C39.1562 1.47208 39.7743 1.99874 39.7594 2.68724C39.7448 3.36784 39.1739 3.91269 38.4854 3.89778L38.2163 3.89368C35.0754 3.98314 31.9434 4.40569 28.9478 5.14328C28.835 5.18577 28.7157 5.19628 28.5971 5.19099Z" fill="#5CC3F6"/>
</svg>
