<svg width="170" height="171" viewBox="0 0 170 171" fill="none" xmlns="http://www.w3.org/2000/svg">
<path d="M58.3134 25.4304C86.7373 13.5607 118.124 30.3515 140.542 67.0708C166.957 95.8406 168.966 121.579 140.542 133.449C112.118 145.318 35.1678 133.999 23.3582 105.719C11.5486 77.4391 29.8895 37.3 58.3134 25.4304Z" fill="white" fill-opacity="0.1"/>
<path d="M131.669 111.52C130.892 111.546 130.114 111.593 129.337 111.593C101.865 111.596 74.3953 111.595 46.9236 111.602C45.9314 111.602 44.9619 111.46 44.0045 111.258C42.5937 110.962 41.751 109.845 41.7406 108.375C41.7249 106.066 41.7249 106.066 44.0376 106.066C45.4554 106.066 46.8767 106.013 48.291 106.085C49.1615 106.129 49.3387 105.808 49.337 104.993C49.3144 91.3366 49.3213 77.6801 49.3213 64.0236C49.3213 62.6283 49.3161 61.2348 49.3231 59.8395C49.3335 57.3454 51.111 55.5629 53.5869 55.5629C67.2507 55.5611 80.9128 55.5629 94.5765 55.5629C94.7781 55.5629 94.9814 55.5506 95.1829 55.5454C104.736 55.5541 114.29 55.5594 123.843 55.5698C125.798 55.5716 127.494 56.9128 127.923 58.8122C128.011 59.2028 128.017 59.6197 128.02 60.0243C128.032 61.3603 128.024 62.6981 128.025 64.0341C128.051 77.6609 128.084 91.2895 128.088 104.916C128.088 105.74 128.291 106.027 129.148 106.006C130.939 105.965 132.734 106.061 134.527 106.054C135.106 106.052 135.389 106.181 135.328 106.823C135.233 107.827 135.493 108.858 135.116 109.844C134.946 109.932 134.809 110.046 134.809 110.26C134.364 110.599 133.928 110.951 133.406 111.173C133.259 111.139 133.144 111.188 133.061 111.312C132.944 111.324 132.828 111.337 132.711 111.35C132.574 111.314 132.447 111.321 132.345 111.434C132.119 111.464 131.895 111.492 131.669 111.52ZM124.194 57.0837C123.867 56.7959 123.473 56.9355 123.112 56.9355C105.335 56.9285 87.5587 56.9302 69.784 56.939C68.8318 56.939 67.8762 57.0872 66.9293 57.0384C62.5334 56.8064 58.134 56.9599 53.7363 56.9564C51.806 56.9547 50.7061 58.2087 50.7061 60.1307C50.7061 61.3516 50.7183 62.5708 50.7183 63.7916C50.7148 77.5947 50.7148 91.3994 50.6922 105.202C50.6905 105.893 50.8834 106.085 51.5697 106.083C76.2944 106.068 101.019 106.066 125.744 106.085C126.479 106.085 126.656 105.862 126.656 105.148C126.639 90.1541 126.646 75.1581 126.644 60.1639C126.644 59.8255 126.74 59.4592 126.469 59.1645C126.191 57.9401 125.337 57.3523 124.194 57.0837ZM88.6169 107.459C73.8272 107.459 59.0358 107.459 44.2461 107.459C43.0576 107.459 42.8109 107.894 43.2922 109.019C43.5615 109.648 44.081 109.844 44.6613 109.933C45.3459 110.037 46.0322 110.103 46.7324 110.103C74.6351 110.095 102.538 110.096 130.439 110.096C130.67 110.096 130.903 110.109 131.134 110.091C131.827 110.042 132.52 109.969 133.167 109.697C133.82 109.421 134.147 108.658 133.962 107.859C133.796 107.135 133.203 107.475 132.816 107.473C118.082 107.456 103.349 107.459 88.6169 107.459Z" fill="#5CC3F6"/>
<path d="M37.0789 70.5501C37.6714 71.403 38.3629 72.1983 38.7191 73.1977C40.0188 76.8342 39.3828 80.0818 36.7731 82.9369C35.5673 84.2572 34.9817 85.8409 35.053 87.6182C35.1033 88.8722 34.9417 89.9204 33.8297 90.7541C33.3259 91.1326 33.1886 91.9576 32.6204 92.3918C31.4389 92.5628 30.2522 92.4581 29.069 92.4634C28.4435 92.4651 28.0456 92.043 27.818 91.5268C27.599 91.0314 27.2915 90.6529 26.8745 90.3268C26.3376 89.9065 26.0613 89.3257 26.1135 88.6524C26.315 86.0676 25.5644 83.8596 23.6757 82.0457C23.3126 81.6969 23.0954 81.1928 22.8105 80.7603C22.7653 80.5161 22.6593 80.3103 22.4369 80.1795C22.218 79.3423 21.8757 78.5348 21.8566 77.6505C21.8548 76.9546 21.8513 76.2569 21.8496 75.561C21.9417 75.0465 22.032 74.5337 22.1241 74.0192C22.2388 73.9198 22.2701 73.7907 22.2492 73.6442C23.9242 69.5455 27.4479 67.3584 31.7725 67.8276C33.8575 68.0578 35.5759 69.12 37.0789 70.5501ZM32.9992 86.3816C33.5552 86.4653 33.7602 86.1601 33.8732 85.663C34.1859 84.2869 34.735 83.0102 35.7254 81.9864C36.9746 80.694 37.7982 79.1993 37.9633 77.4011C38.1336 75.5383 37.8695 73.7733 36.5072 72.3396C36.5194 72.0815 36.3578 71.9123 36.2084 71.7344C33.7012 68.7432 28.8605 68.2985 25.9831 70.7961C22.6715 73.6704 22.251 78.4039 25.0692 81.4893C26.1882 82.7154 27.0274 84.0758 27.3749 85.7031C27.4826 86.2072 27.7554 86.3868 28.2019 86.4112C28.5477 86.4304 28.897 86.4077 29.2427 86.4287C29.7379 86.4601 29.9012 86.2264 29.8925 85.752C29.8734 84.5904 29.8526 83.427 29.8995 82.2672C29.9273 81.566 29.8126 81.1457 28.9786 81.2347C28.4539 81.2905 28.3079 80.9417 28.3149 80.4516C28.3218 79.958 28.5338 79.7801 29.0012 79.787C29.9551 79.7992 30.9107 79.7853 31.8646 79.7923C32.3181 79.7958 32.8081 79.6946 32.8359 80.4376C32.8619 81.1492 32.4849 81.294 31.922 81.2469C31.3538 81.1998 31.2443 81.498 31.2565 81.9864C31.2791 82.9143 31.2617 83.8439 31.2617 84.7735C31.2617 86.5211 31.2617 86.5211 32.9992 86.3816ZM30.6414 87.7664C30.6414 87.7647 30.6414 87.7647 30.6414 87.7629C29.9481 87.7629 29.2531 87.7385 28.5616 87.7734C28.228 87.7908 27.7224 87.5345 27.6095 88.0734C27.5052 88.5757 27.4774 89.1199 28.0421 89.4617C28.2836 89.6082 28.6259 89.7879 28.6815 90.0129C29.0551 91.4919 30.1949 91.2425 31.2409 91.2233C31.6057 91.2163 32.0279 91.1221 32.1235 90.7855C32.332 90.0617 32.7942 89.6187 33.3797 89.2158C33.7933 88.9298 33.7533 88.4292 33.6351 88.0158C33.5153 87.599 33.0965 87.7839 32.8064 87.7734C32.087 87.749 31.3642 87.7664 30.6414 87.7664Z" fill="#5CC3F6"/>
<path d="M145.834 32.6327C145.934 33.081 145.778 33.531 145.722 33.9862C145.576 35.146 145.569 35.1373 146.681 35.3065C148.417 35.5716 148.25 35.2681 148.011 37.0872C147.894 37.9802 147.748 38.868 147.644 39.7627C147.58 40.3156 147.324 40.504 146.772 40.4307C146.178 40.3522 145.479 39.986 145.01 40.3226C144.532 40.6644 144.701 41.4493 144.617 42.0405C144.532 42.6492 144.244 42.8149 143.67 42.7208C142.614 42.5481 141.554 42.3929 140.491 42.276C139.789 42.1993 139.556 41.8836 139.648 41.1772C139.87 39.4767 139.851 39.4453 138.126 39.2255C137.495 39.1453 137.283 38.9552 137.407 38.2942C137.615 37.1832 137.759 36.0564 137.876 34.9315C137.942 34.3001 138.169 34.0978 138.823 34.192C140.564 34.4396 140.591 34.4152 140.828 32.6885C140.918 32.031 141.154 31.7711 141.841 31.8932C142.951 32.0886 144.073 32.2141 145.191 32.3746C145.415 32.4042 145.663 32.3868 145.834 32.6327ZM146.35 38.5418C146.376 38.1982 146.443 37.6837 146.445 37.1709C146.447 36.782 146.099 36.7768 145.816 36.7157C145.231 36.5884 144.426 36.7907 144.103 36.3303C143.766 35.8489 144.058 35.1007 144.136 34.4728C144.167 34.2164 144.226 33.9565 143.948 33.7716C143.097 33.21 142.23 33.5972 142.087 34.6071C142.075 34.6925 142.063 34.7797 142.051 34.8652C141.867 36.1628 141.867 36.1628 140.598 35.9867C140.484 35.971 140.364 35.971 140.256 35.9361C139.413 35.671 139.245 36.1262 139.125 36.85C139 37.6087 139.191 37.8634 139.957 37.9541C141.844 38.1773 141.637 37.9523 141.34 39.8238C141.215 40.6156 141.41 40.8964 142.213 41.0063C142.991 41.1127 143.368 40.9679 143.352 40.1342C143.349 39.8761 143.443 39.618 143.451 39.3581C143.476 38.6098 143.86 38.411 144.541 38.5697C144.906 38.6552 145.284 38.6831 145.656 38.7284C145.827 38.7494 146 38.8052 146.35 38.5418Z" fill="#5CC3F6"/>
<path d="M27.5437 106.465C26.562 106.465 25.5786 106.444 24.5969 106.472C23.9488 106.491 23.636 106.265 23.6447 105.572C23.6656 103.601 23.6621 101.629 23.6464 99.656C23.6412 99.0439 23.8602 98.7404 24.5048 98.7526C25.6602 98.7735 26.8157 98.7735 27.9711 98.7526C28.6036 98.7404 28.8833 99.0142 28.8416 99.6386C28.8399 99.6683 28.8416 99.6962 28.8416 99.7258C28.8781 101.329 28.8781 101.35 30.5148 101.364C31.1716 101.369 31.4705 101.597 31.4548 102.279C31.4288 103.38 31.434 104.484 31.4531 105.584C31.4635 106.21 31.2081 106.484 30.5756 106.47C29.5661 106.449 28.5549 106.465 27.5437 106.465ZM27.5663 104.995C28.0858 104.995 28.6088 104.96 29.1248 105.004C29.8546 105.065 30.0266 104.688 29.9779 104.056C29.9362 103.493 30.0996 102.876 29.1648 102.862C27.3265 102.832 27.29 102.799 27.2518 100.934C27.2361 100.141 26.767 100.216 26.2736 100.237C25.761 100.258 25.1042 100.042 25.1216 100.959C25.1424 102.059 25.1424 103.162 25.1199 104.262C25.1077 104.847 25.3874 105.023 25.9191 105C26.4682 104.976 27.0172 104.995 27.5663 104.995Z" fill="#5CC3F6"/>
<path d="M150.151 58.0098C150.743 58.7964 151.318 59.5987 151.934 60.3678C152.345 60.8841 152.324 61.2661 151.777 61.6724C150.196 62.8445 148.627 64.034 147.07 65.2409C146.549 65.6438 146.189 65.6316 145.791 65.0613C145.131 64.109 144.426 63.1863 143.703 62.2811C143.319 61.7998 143.42 61.4858 143.859 61.1213C145.194 60.0155 145.199 59.9946 144.238 58.6202C143.903 58.1406 143.924 57.7935 144.394 57.4429C145.324 56.754 146.245 56.0511 147.164 55.3465C147.595 55.0168 147.946 55.0692 148.269 55.5087C148.889 56.3476 149.522 57.1778 150.151 58.0098ZM148.53 62.2672C148.99 61.9184 149.44 61.5521 149.916 61.2242C150.384 60.9015 150.396 60.5789 150.055 60.1446C149.411 59.3266 148.743 58.5173 148.186 57.64C147.647 56.7941 147.218 57.1848 146.652 57.5755C146.01 58.0167 145.901 58.3882 146.42 59.0353C147.536 60.4271 147.534 60.2388 146.111 61.3184C146.089 61.3358 146.066 61.355 146.042 61.3707C145.407 61.7562 145.347 62.1887 145.819 62.7904C146.568 63.7462 146.549 63.7671 147.496 63.0538C147.838 62.7922 148.184 62.5288 148.53 62.2672Z" fill="#5CC3F6"/>
<path d="M33.5393 42.5622C31.5081 42.5569 30.0556 41.0535 30.0625 38.9605C30.0677 36.899 31.5359 35.467 33.6331 35.474C35.6712 35.4827 37.1307 36.9827 37.1238 39.0617C37.1168 41.0988 35.6121 42.5674 33.5393 42.5622ZM33.5097 36.8467C32.4342 36.8728 31.4352 37.9123 31.4282 39.0129C31.4213 40.1099 32.5385 41.2244 33.5984 41.1756C34.7086 41.1232 35.7494 40.0419 35.7424 38.9466C35.7372 37.8565 34.6322 36.8187 33.5097 36.8467Z" fill="#5CC3F6"/>
<path d="M121.176 37.0298C122.117 38.7199 123.21 40.675 124.296 42.6319C124.597 43.1744 124.3 43.2808 123.824 43.279C122.102 43.2703 120.38 43.2703 118.658 43.272C118.142 43.272 117.624 43.3052 117.108 43.2895C116.307 43.2668 116.159 43.0296 116.554 42.3477C117.53 40.6541 118.531 38.9728 119.523 37.2879C119.61 37.138 119.706 36.9932 119.787 36.8415C120.305 35.8665 120.305 35.8647 121.176 37.0298ZM121.035 39.4507C120.507 38.7391 120.26 38.7373 119.86 39.3373C119.447 39.9582 119.212 40.6803 118.696 41.2523C118.429 41.5506 118.582 41.8959 119.014 41.9151C119.933 41.9535 120.854 41.9483 121.775 41.9483C122.098 41.9483 122.289 41.814 122.104 41.4582C121.728 40.7448 121.348 40.0349 121.035 39.4507Z" fill="#F6F6FE"/>
<path d="M48.3859 46.6923C48.1947 46.5178 48.0001 46.3487 47.8159 46.1673C46.9819 45.3458 46.9489 45.3144 46.1618 46.1812C45.6649 46.7289 45.3296 46.7359 44.8917 46.1463C44.5738 45.7173 44.7996 45.4696 45.0707 45.1836C45.9168 44.2906 45.936 44.2679 45.0915 43.4464C44.6711 43.0366 44.6259 42.7732 45.0603 42.318C45.5554 41.7982 45.8248 42.1331 46.0854 42.4767C46.6449 43.2197 47.1505 43.3139 47.7621 42.5168C48.0887 42.0912 48.504 41.7808 48.9905 42.4436C49.2702 42.8255 49.265 43.0488 48.9314 43.3906C48.0279 44.3168 48.0453 44.3342 48.9488 45.3388C49.1156 45.5254 49.3814 45.6789 49.159 45.9929C48.9575 46.2771 48.7525 46.5527 48.3859 46.6923Z" fill="#5CC3F6"/>
<path d="M38.1507 63.1481C37.9023 63.6696 37.699 64.1161 37.4801 64.5521C37.1048 65.3003 36.6999 66.0329 36.3472 66.7898C36.0675 67.3915 35.6869 67.402 35.1535 67.1456C34.5836 66.8718 34.5958 66.5299 34.8634 66.0294C35.4333 64.9602 35.9684 63.8736 36.5018 62.7853C36.6739 62.4347 36.9049 62.2952 37.2629 62.4661C37.6173 62.6335 37.9892 62.794 38.1507 63.1481Z" fill="#5CC3F6"/>
<path d="M26.44 66.5839C26.3583 66.9642 25.9587 67.0409 25.6529 67.2083C25.3679 67.3636 25.083 67.3531 24.9145 67.0269C24.282 65.8026 23.6391 64.5817 23.0432 63.3399C22.826 62.8881 23.2586 62.7538 23.5609 62.6021C23.8911 62.4364 24.2855 62.1608 24.5339 62.6387C25.1699 63.8614 25.7537 65.1119 26.3566 66.352C26.3826 66.4043 26.3965 66.4618 26.44 66.5839Z" fill="#5CC3F6"/>
<path d="M22.8384 69.2368C22.7325 69.6327 22.4718 69.9415 22.133 70.1717C21.8776 70.3443 21.65 70.2066 21.4363 70.0217C20.5032 69.2054 19.5702 68.3892 18.6215 67.5904C18.1315 67.1788 18.2618 66.8526 18.6389 66.4375C19.0263 66.0119 19.2974 66.0433 19.7092 66.4113C20.5884 67.1997 21.5127 67.9357 22.4214 68.6909C22.5987 68.8374 22.8037 68.9578 22.8384 69.2368Z" fill="#5CC3F6"/>
<path d="M31.3503 63.5893C31.3503 64.109 31.3311 64.6288 31.3555 65.1468C31.3798 65.7031 31.319 66.0764 30.5927 66.0799C29.8664 66.0834 29.7222 65.7694 29.7413 65.1346C29.7761 64.0096 29.783 62.8829 29.7396 61.7579C29.7135 61.0777 30.0819 61.0114 30.5997 61.0062C31.1365 61.001 31.3954 61.1876 31.3572 61.7701C31.3207 62.3753 31.3503 62.984 31.3503 63.5893Z" fill="#5CC3F6"/>
<path d="M20.4092 73.871C20.4457 74.4169 20.2233 74.7832 19.6082 74.6489C18.3451 74.3733 17.0889 74.0611 15.8361 73.7419C15.4625 73.646 15.1185 73.5082 15.3305 72.9588C15.506 72.5071 15.5703 72.0885 16.2514 72.2769C17.4954 72.6222 18.7603 72.8925 20.0183 73.189C20.378 73.2745 20.4631 73.5169 20.4092 73.871Z" fill="#5CC3F6"/>
<path d="M16.0346 80.5509C15.3952 80.5614 15.2979 80.1812 15.218 79.8062C15.1328 79.4051 15.2614 79.1678 15.7149 79.0737C17.0111 78.8016 18.2986 78.4894 19.5861 78.1807C20.0813 78.0621 20.1768 78.4004 20.2776 78.744C20.3732 79.0684 20.5938 79.5097 20.1212 79.6335C18.7278 79.9928 17.3134 80.2701 16.0346 80.5509Z" fill="#5CC3F6"/>
<path d="M38.7349 68.9543C39.7079 68.1921 40.7035 67.4578 41.6452 66.659C42.1334 66.2439 42.4045 66.4549 42.7051 66.8369C43.0022 67.2136 43.1672 67.5154 42.6304 67.8973C41.7651 68.5147 40.9762 69.2403 40.1335 69.8944C39.1571 70.6513 38.7783 70.5083 38.4082 69.2874C38.5177 69.1775 38.6271 69.0659 38.7349 68.9543Z" fill="#5CC3F6"/>
<path d="M134.809 110.264C134.809 110.047 134.946 109.936 135.116 109.847C135.151 110.088 135.064 110.239 134.809 110.264Z" fill="#F6F6FE"/>
<path d="M133.061 111.316C133.144 111.192 133.26 111.143 133.406 111.176C133.359 111.396 133.292 111.561 133.061 111.316Z" fill="#F6F6FE"/>
<path d="M132.346 111.436C132.448 111.321 132.575 111.316 132.712 111.352C132.646 111.626 132.54 111.725 132.346 111.436Z" fill="#F6F6FE"/>
<path d="M44.9038 80.9015C43.6459 80.5823 42.315 80.2387 40.9788 79.9091C40.5253 79.7975 40.5861 79.5236 40.6782 79.1818C40.7773 78.812 40.8276 78.3446 41.3315 78.4527C42.7042 78.7475 44.0681 79.0946 45.4251 79.4591C46.0228 79.6196 45.611 80.0835 45.6145 80.4061C45.6162 80.8003 45.366 80.9608 44.9038 80.9015Z" fill="#5CC3F6"/>
<path d="M40.7045 74.007C40.635 73.5937 40.9008 73.4471 41.2414 73.3756C42.3985 73.1332 43.5575 72.9012 44.7129 72.6501C45.2845 72.5262 45.6407 72.6518 45.7693 73.2954C45.91 73.9948 45.4687 74.0436 44.9892 74.15C43.9189 74.3837 42.8538 74.6384 41.7922 74.9052C41.0659 75.0884 40.7097 74.8111 40.7045 74.007Z" fill="#5CC3F6"/>
<path d="M101.444 59.2585C101.848 59.2795 102.251 59.3161 102.654 59.3178C109.566 59.3213 116.477 59.3353 123.389 59.3021C124.201 59.2987 124.399 59.5376 124.395 60.3259C124.366 66.5089 124.378 72.6918 124.38 78.8747C124.38 79.2794 124.406 79.6858 124.42 80.0904C124.406 80.4375 124.38 80.7846 124.38 81.1334C124.378 88.3959 124.366 95.6602 124.395 102.923C124.399 103.727 124.244 104.008 123.368 104.008C100.242 103.981 77.1158 103.983 53.9895 104.004C53.1955 104.004 52.9766 103.793 52.9766 102.989C53.0009 88.7814 53.0009 74.5755 52.9766 60.3678C52.9748 59.5289 53.2077 59.3021 54.0399 59.3039C69.4673 59.3283 84.8946 59.3213 100.322 59.3196C100.696 59.3196 101.069 59.2795 101.444 59.2585ZM75.8387 102.597C82.6098 102.597 89.3826 102.597 96.1537 102.597C97.2883 102.597 97.29 102.595 97.29 101.437C97.29 88.2198 97.2814 75.0045 97.3109 61.7875C97.3126 60.9067 97.0954 60.6695 96.2076 60.6713C82.6637 60.7009 69.1215 60.7009 55.5776 60.6713C54.6811 60.6695 54.4743 60.9277 54.476 61.7962C54.5038 75.0411 54.5021 88.2878 54.4778 101.533C54.476 102.351 54.6654 102.621 55.5255 102.616C62.2948 102.581 69.0659 102.597 75.8387 102.597ZM98.7895 81.6409C98.7895 88.293 98.8034 94.9434 98.7721 101.595C98.7687 102.405 99.0015 102.616 99.7955 102.614C107.203 102.584 114.611 102.584 122.018 102.614C122.811 102.618 123.04 102.41 123.038 101.601C123.016 88.2983 123.019 74.9941 123.045 61.6916C123.047 60.8963 122.838 60.6608 122.03 60.6643C114.623 60.6974 107.215 60.7027 99.8077 60.6713C98.9268 60.6678 98.7704 60.9783 98.7739 61.7736C98.8017 68.396 98.7895 75.0185 98.7895 81.6409Z" fill="#5CC3F6"/>
<path d="M35.204 75.0604C35.2735 75.486 35.336 75.9115 35.416 76.3336C35.5463 77.0365 35.4003 77.5283 34.5594 77.5196C34.4273 77.4464 34.2953 77.3731 34.1632 77.2998C34.1806 77.0574 34.2588 76.8028 34.0416 76.6022C34.0207 76.4871 34.0016 76.3702 33.9808 76.2551C34.0364 76.1086 34.0068 75.99 33.8765 75.8993C33.6906 74.8127 33.1155 73.9686 32.1877 73.4122C31.6317 73.0791 31.4388 72.6936 31.7967 72.1582C32.2137 71.5355 32.629 72.0745 32.9591 72.282C34.019 72.9413 34.641 73.9825 35.204 75.0604Z" fill="#5CC3F6"/>
<path d="M67.0389 70.0043C67.5463 70.0043 67.8903 70.3008 68.2291 70.6322C68.8181 71.2077 69.1761 71.1659 69.5948 70.4979C70.3524 69.2875 70.4375 69.2508 71.8171 69.6694C72.1472 69.7688 72.4704 69.8996 72.7883 70.0339C74.1905 70.6269 74.2652 70.7682 73.8587 72.2368C73.7144 72.7565 73.9507 73.0129 74.3973 73.135C74.5867 73.1873 74.8004 73.1681 75.0019 73.1612C75.9159 73.1263 76.4858 73.4995 76.6039 74.4623C76.6734 75.0344 76.8124 75.6012 76.8628 76.175C76.9236 76.857 76.6109 77.3383 75.968 77.6035C74.6753 78.1337 74.6614 78.1755 75.2226 79.3737C75.617 80.2161 75.485 80.7446 74.7274 81.3306C74.4529 81.5434 74.1714 81.7457 73.8969 81.9568C72.7067 82.8725 72.625 82.9021 71.4505 81.969C70.8389 81.4824 70.441 81.5312 70.0813 82.2097C69.6452 83.0312 68.9259 83.2038 68.0884 83.0172C67.4646 82.8794 66.8808 82.6108 66.3335 82.2864C65.7566 81.9446 65.6889 81.3847 65.7167 80.769C65.7705 79.5586 65.7323 79.5115 64.5317 79.365C63.7794 79.2743 63.3085 78.8924 63.1382 78.1563C63.027 77.6784 62.9645 77.1918 62.9123 76.7C62.8168 75.8175 63.1521 75.2785 63.9496 74.928C64.6498 74.6193 64.8861 73.9687 64.4848 73.3007C63.9618 72.4304 64.179 71.8531 64.9713 71.3351C65.3796 71.0682 65.7323 70.7159 66.1076 70.3985C66.3735 70.17 66.6723 70.006 67.0389 70.0043ZM67.0493 80.3853C66.8113 81.083 67.2022 81.4196 67.9059 81.7021C68.6513 82.0004 68.9206 81.6254 69.289 81.1109C69.9284 80.2144 71.1325 80.0958 72.0447 80.8754C72.7501 81.4789 73.1185 80.9295 73.6084 80.6103C74.1245 80.2737 74.0602 79.9179 73.8065 79.433C73.1914 78.261 73.598 77.1796 74.8334 76.7105C75.412 76.4907 75.6813 76.1925 75.5197 75.5506C75.3668 74.9384 75.3807 74.3071 74.4199 74.3437C73.1862 74.389 72.3644 73.3652 72.6389 72.1548C72.7779 71.5426 72.6945 71.2217 72.0933 71.0577C71.5043 70.8955 70.9518 70.5014 70.4827 71.3752C69.9301 72.4025 68.4897 72.6065 67.6453 71.8426C67.2544 71.4903 66.9347 71.2322 66.4933 71.6961C66.1007 72.1112 65.3414 72.2978 65.8331 73.203C66.3283 74.1152 65.7566 75.6099 64.8114 75.9099C63.8436 76.2169 64.2207 76.8203 64.252 77.4308C64.2867 78.1406 64.6985 78.1668 65.2389 78.2017C66.4291 78.2784 67.1084 79.0912 67.0493 80.3853Z" fill="#5CC3F6"/>
<path d="M79.2872 82.2097C80.7137 83.1288 80.8492 82.1765 80.9048 81.0167C80.9222 80.6557 81.2558 80.4202 81.6276 80.3539C82.0829 80.272 82.5381 80.1813 82.9985 80.1551C84.3416 80.0801 84.3364 80.0941 84.8473 81.3847C85.0436 81.8818 85.2955 82.1295 85.8967 81.7841C86.8854 81.2173 87.2259 81.3428 87.9192 82.2882C88.1416 82.5916 88.3848 82.8794 88.602 83.1881C89.0555 83.8317 89.026 84.423 88.3952 84.9497C87.834 85.4171 87.867 85.8305 88.4717 86.2718C89.4047 86.952 89.4586 87.2764 88.9582 88.3385C88.7862 88.7048 88.609 89.0676 88.43 89.4304C88.1277 90.0426 87.7089 90.2396 87.0174 89.9902C86.1243 89.6676 85.8706 89.8542 85.8046 90.8135C85.7577 91.5041 85.438 91.8896 84.7725 91.9995C84.2895 92.0797 83.803 92.2088 83.32 92.207C82.618 92.2035 82.1107 91.832 81.8952 91.1414C81.6937 90.5013 81.4313 90.2274 80.6946 90.578C79.9631 90.9268 79.2629 90.7821 78.719 90.0373C77.7043 88.6507 77.6157 88.3665 78.2725 87.4368C78.6913 86.8438 78.6391 86.3799 78.0101 85.9822C77.8225 85.8636 77.6314 85.6892 77.5375 85.4939C77.2283 84.8503 78.1248 82.6387 78.792 82.3492C78.9223 82.2899 79.0666 82.269 79.2872 82.2097ZM79.7285 87.0235C79.7581 87.3008 79.6069 87.6967 79.3289 87.9897C78.8737 88.4728 79.2751 88.7432 79.4992 89.0955C79.739 89.4722 79.984 89.5699 80.4357 89.4199C81.7632 88.9786 82.3383 89.2211 82.896 90.5135C83.1619 91.1291 83.5372 91.0001 84.0167 90.9495C84.5067 90.8989 84.7169 90.7489 84.7569 90.2222C84.842 89.0955 85.6239 88.4903 86.7081 88.7484C87.3666 88.9071 87.5717 88.5949 87.8097 88.1048C88.0547 87.6008 87.9956 87.3008 87.5074 86.9729C86.649 86.3956 86.5465 85.2497 87.2294 84.4893C87.5022 84.1858 87.8636 83.9503 87.4031 83.4968C87.0365 83.1358 86.9045 82.5289 86.1156 82.9544C85.1652 83.4655 84.0758 82.9544 83.7961 81.8992C83.6362 81.2975 83.3391 81.2452 82.87 81.3324C82.4286 81.4144 81.9786 81.4004 81.9508 82.1015C81.9056 83.2841 81.0473 83.8858 79.8745 83.6434C79.4992 83.5649 79.1465 83.5073 79.0509 83.9782C78.9658 84.3916 78.3368 84.8032 79.0353 85.2532C79.6104 85.6264 79.6955 86.2404 79.7285 87.0235Z" fill="#5CC3F6"/>
<path d="M67.9495 90.0826C68.6132 89.9866 68.7748 90.3704 68.6966 90.918C68.575 91.7814 68.8808 92.1529 69.786 92.0465C70.2395 91.9924 70.7625 92.0325 70.7816 92.7092C70.8025 93.4383 70.2882 93.4976 69.7739 93.4278C68.8513 93.3005 68.5802 93.7226 68.7001 94.565C68.78 95.1353 68.5733 95.4074 67.9408 95.4144C67.3014 95.4231 67.2562 95.0987 67.2632 94.6016C67.2788 93.6266 67.5151 93.3702 66.0695 93.4383C65.5726 93.4609 65.2094 93.3249 65.2129 92.7302C65.2164 92.1319 65.5917 92.0412 66.0817 92.029C67.2284 91.9994 67.2528 91.9889 67.2597 90.7715C67.2614 90.25 67.4057 89.9919 67.9495 90.0826Z" fill="#5CC3F6"/>
<path d="M108.917 80.1515C110.446 80.1515 111.975 80.1707 113.504 80.1411C114.062 80.1306 114.262 80.3033 114.262 80.8806C114.264 81.4579 114.065 81.6288 113.508 81.6253C110.458 81.6061 107.407 81.6044 104.358 81.6253C103.781 81.6288 103.538 81.4875 103.543 80.8509C103.548 80.237 103.811 80.1358 104.33 80.1446C105.859 80.1655 107.388 80.1515 108.917 80.1515Z" fill="#5CC3F6"/>
<path d="M108.911 73.768C107.406 73.768 105.901 73.7663 104.397 73.7698C103.877 73.7715 103.511 73.6721 103.528 72.9989C103.544 72.357 103.917 72.3047 104.385 72.3047C107.394 72.303 110.405 72.3099 113.414 72.2977C113.941 72.296 114.128 72.5123 114.128 73.0285C114.128 73.5361 113.963 73.7785 113.428 73.7733C111.92 73.7576 110.415 73.768 108.911 73.768Z" fill="#5CC3F6"/>
<path d="M109.137 87.9984C110.608 87.9984 112.082 88.0037 113.554 87.995C114.045 87.9915 114.412 88.0961 114.428 88.6909C114.443 89.3187 114.089 89.4757 113.543 89.467C111.072 89.4269 108.6 89.3955 106.129 89.3728C105.67 89.3693 105.21 89.4129 104.75 89.4443C104.261 89.4775 103.785 89.5001 103.764 88.8112C103.745 88.2112 104.082 87.995 104.635 87.9967C106.134 88.0019 107.636 87.9984 109.137 87.9984Z" fill="#5CC3F6"/>
<path d="M108.945 93.337C107.444 93.337 105.941 93.3318 104.44 93.3388C103.967 93.3405 103.583 93.3144 103.578 92.669C103.573 92.0516 103.9 91.9609 104.404 91.9627C107.437 91.9731 110.469 91.9766 113.503 91.9592C114.029 91.9557 114.286 92.0691 114.292 92.676C114.295 93.344 113.922 93.3423 113.454 93.3388C111.95 93.3301 110.447 93.337 108.945 93.337Z" fill="#5CC3F6"/>
<path d="M108.287 97.2125C107.02 97.2125 105.752 97.2038 104.485 97.2177C104.048 97.223 103.754 97.1253 103.754 96.6038C103.754 96.1015 103.957 95.8416 104.473 95.8433C105.747 95.8468 107.02 95.8521 108.294 95.8399C108.85 95.8346 109.326 95.812 109.305 96.6265C109.286 97.4323 108.763 97.291 108.287 97.2125Z" fill="#5CC3F6"/>
<path d="M106.443 85.4885C105.722 85.4868 104.999 85.4798 104.278 85.4903C103.825 85.4973 103.583 85.3385 103.578 84.838C103.573 84.3165 103.78 84.1107 104.298 84.1159C105.74 84.1316 107.184 84.1351 108.626 84.1141C109.15 84.1072 109.237 84.3705 109.244 84.817C109.251 85.2897 109.107 85.5129 108.605 85.4972C107.887 85.4728 107.164 85.4903 106.443 85.4885Z" fill="#5CC3F6"/>
<path d="M114.458 76.2761C115.178 76.2743 115.897 76.2935 116.616 76.2691C117.082 76.2534 117.218 76.4679 117.207 76.8953C117.197 77.3086 117.162 77.6505 116.623 77.647C115.127 77.6382 113.631 77.64 112.135 77.6435C111.661 77.6452 111.569 77.3627 111.572 76.9633C111.576 76.5726 111.647 76.2726 112.13 76.2761C112.905 76.2831 113.682 76.2778 114.458 76.2761Z" fill="#5CC3F6"/>
<path d="M106.217 77.6436C105.528 77.6436 104.836 77.6227 104.146 77.6506C103.623 77.6715 103.53 77.4047 103.531 76.9564C103.533 76.503 103.639 76.2605 104.155 76.2692C105.594 76.2919 107.032 76.2937 108.469 76.2675C109.006 76.257 109.074 76.5309 109.081 76.9652C109.088 77.4186 108.982 77.6733 108.461 77.6523C107.715 77.6209 106.966 77.6436 106.217 77.6436Z" fill="#5CC3F6"/>
<path d="M106.265 69.9607C105.575 69.9607 104.884 69.9397 104.194 69.9676C103.711 69.9886 103.452 69.6973 103.438 69.3188C103.424 68.9002 103.664 68.5741 104.192 68.5793C105.601 68.5968 107.012 68.5933 108.421 68.5793C108.909 68.5741 109.08 68.8008 109.078 69.2665C109.076 69.7269 108.909 69.9711 108.421 69.9624C107.704 69.9519 106.984 69.9607 106.265 69.9607Z" fill="#5CC3F6"/>
<path d="M72.6079 76.29C72.6218 77.8021 71.4021 79.0475 69.8817 79.0701C68.351 79.0945 67.0965 77.8946 67.067 76.3807C67.0374 74.7918 68.1668 73.6267 69.7532 73.611C71.4559 73.5953 72.5923 74.6627 72.6079 76.29ZM71.409 76.2708C71.3969 75.39 70.6793 74.6889 69.8036 74.7011C68.9365 74.7133 68.2433 75.4441 68.252 76.3371C68.2606 77.2824 68.8896 77.8754 69.8661 77.8614C70.8269 77.8457 71.4229 77.2318 71.409 76.2708Z" fill="#5CC3F6"/>
<path d="M85.8008 86.2246C85.7834 87.5362 84.6454 88.6402 83.3283 88.6263C81.9939 88.6106 80.9184 87.5135 80.9219 86.1705C80.9254 84.7316 81.9713 83.7078 83.4065 83.7392C84.7218 83.7671 85.8199 84.906 85.8008 86.2246ZM83.3248 87.456C84.0616 87.4577 84.7114 86.8473 84.701 86.1653C84.6923 85.5392 84.039 84.8624 83.4187 84.8363C82.7306 84.8084 81.9852 85.5357 82.0043 86.2159C82.0217 86.8664 82.649 87.4542 83.3248 87.456Z" fill="#5CC3F6"/>
</svg>
