<svg width="107" height="90" viewBox="0 0 107 90" fill="none" xmlns="http://www.w3.org/2000/svg">
<path d="M87.2011 22.2763C88.1265 22.694 89.1548 23.1173 90.1552 23.6209C94.0903 25.6119 95.0842 27.8418 94.1042 32.1419C92.964 37.1423 90.5336 41.5463 87.5927 45.6314C81.9922 53.4425 75.0444 59.8069 66.3983 64.139C63.9196 65.376 61.2835 66.3115 58.6825 67.2967C57.874 67.6004 57.3191 68.0143 56.8456 68.7334C54.5606 72.1776 52.2799 75.6307 49.8795 78.9975C48.2656 81.2598 46.1167 82.9926 43.6026 84.2023C41.336 85.2808 39.0254 86.2916 36.7111 87.2488C34.7203 88.071 32.893 87.5132 31.6824 85.8444C30.5335 84.2568 30.658 82.3843 31.9743 80.7223C32.8638 79.6011 33.7444 78.4843 34.5631 77.3085C35.4226 76.0796 35.681 74.6201 35.3619 73.2076C34.9444 71.4093 34.4601 69.5879 33.6833 67.9196C30.8165 61.7413 27.8327 55.6198 24.8532 49.5073C24.1455 48.05 23.2939 46.6627 22.4017 45.3061C20.8851 43.03 18.6873 42.0296 15.9762 42.101C14.898 42.1243 13.8102 42.2191 12.7379 42.1172C10.9955 41.9629 9.63219 40.7351 9.1818 39.0751C8.75736 37.4914 9.26971 35.7307 10.7786 34.8089C14.9675 32.2634 19.0746 29.4352 24.1728 29.0827C26.0124 28.9564 27.8757 29.1077 29.7215 29.223C32.4164 29.3928 35.1244 29.5897 37.8087 29.898C38.9745 30.0323 39.8679 29.743 40.8276 29.1324C52.8816 21.3334 66.0989 18.9058 80.2113 20.6792C81.1357 20.7972 82.0462 20.9554 82.9473 21.1626C84.3253 21.505 85.7028 21.8922 87.2011 22.2763ZM88.9839 34.7839C89.2986 33.8752 89.5467 33.3101 89.6878 32.7079C90.7606 28.5073 90.8899 28.5446 87.1105 26.6224C86.7993 26.4623 86.4696 26.3556 86.1355 26.2399C81.6843 24.7885 77.1115 24.1855 72.4472 24.1494C63.9949 24.0963 55.9121 25.7425 48.35 29.537C40.4774 33.4935 33.9941 39.1431 28.7687 46.2385C28.3916 46.744 28.3204 47.101 28.5999 47.6767C31.4303 53.5281 34.2204 59.388 37.0688 65.2307C37.2523 65.6085 37.8426 65.9999 38.2584 66.0092C51.0327 66.3091 62.7381 63.1261 72.9379 55.1714C80.055 49.6364 85.5058 42.7762 88.9839 34.7839ZM34.0569 34.0989C26.7909 32.4137 19.8998 33.1032 13.7144 38.1302C18.7481 37.5534 22.8775 38.9831 25.6959 43.1617C28.5358 40.0818 31.3258 37.0594 34.0569 34.0989ZM35.4362 83.021C43.3047 81.3455 48.0699 76.141 51.3403 69.4837C47.3606 69.8043 43.2645 70.1371 39.1326 70.4649C40.5825 75.4193 39.0185 79.5471 35.4362 83.021Z" fill="white"/>
<path d="M8.38361 73.2572C4.48962 71.9688 3.18937 69.5431 4.29425 66.0495C6.19758 60.0338 10.1979 56.0012 16.2001 54.0536C19.9936 52.8229 20.0151 52.8902 21.7046 56.4609C23.3158 59.8473 24.9179 63.2381 26.511 66.6332C27.2793 68.2611 27.093 68.9074 25.676 69.9957C21.5514 73.1771 16.9797 74.7969 11.7341 73.9758C10.444 73.7686 9.16874 73.4318 8.38361 73.2572ZM17.8693 57.8343C16.4393 58.5065 15.1771 58.9749 14.0331 59.6638C11.245 61.3624 9.21373 63.7495 8.07779 66.8358C7.77754 67.6597 7.64332 68.4363 8.71034 68.9854C12.7343 71.0222 18.7218 70.3491 22.5526 67.0436C21.1514 64.4557 19.6847 61.7329 18.2269 59.0057C18.0784 58.6999 18.0245 58.337 17.8693 57.8343Z" fill="white"/>
<path d="M67.1821 46.2052C62.8792 44.6929 60.635 39.9798 62.1696 35.6772C63.6906 31.3923 68.4667 29.1175 72.7112 30.647C77.0002 32.1994 79.2401 36.9034 77.7145 41.2017C76.2022 45.5046 71.5251 47.7314 67.1821 46.2052ZM73.7853 39.8637C74.5665 37.6723 73.5017 35.3879 71.3506 34.5983C69.2129 33.8132 66.8656 34.9086 66.0849 37.0553C65.2906 39.2197 66.3729 41.54 68.5376 42.312C70.7424 43.0978 73.0087 42.0417 73.7853 39.8637Z" fill="white"/>
</svg>
