<svg width="50" height="739" viewBox="0 0 50 739" fill="none" xmlns="http://www.w3.org/2000/svg">
<path d="M24.0002 414L24 727.5" stroke="url(#paint0_linear)" stroke-opacity="0.2" stroke-dasharray="4 4"/>
<circle cx="24.6032" cy="432.604" r="8.87344" transform="rotate(22.6247 24.6032 432.604)" fill="#212529"/>
<circle cx="24.6032" cy="432.604" r="7.87344" transform="rotate(22.6247 24.6032 432.604)" stroke="white" stroke-opacity="0.2" stroke-width="2"/>
<circle cx="23.6032" cy="537.604" r="8.87344" transform="rotate(22.6247 23.6032 537.604)" fill="#212529"/>
<circle cx="23.6032" cy="537.604" r="7.87344" transform="rotate(22.6247 23.6032 537.604)" stroke="white" stroke-opacity="0.2" stroke-width="2"/>
<circle cx="23.6032" cy="642.604" r="8.87344" transform="rotate(22.6247 23.6032 642.604)" fill="#212529"/>
<circle cx="23.6032" cy="642.604" r="7.87344" transform="rotate(22.6247 23.6032 642.604)" stroke="white" stroke-opacity="0.2" stroke-width="2"/>
<circle cx="23.6032" cy="726.604" r="8.87344" transform="rotate(22.6247 23.6032 726.604)" fill="#212529"/>
<circle cx="23.6032" cy="726.604" r="7.87344" transform="rotate(22.6247 23.6032 726.604)" stroke="white" stroke-opacity="0.2" stroke-width="2"/>
<circle cx="23.7241" cy="19.7248" r="17.9294" transform="rotate(6.06978 23.7241 19.7248)" fill="url(#paint1_radial)" fill-opacity="0.2"/>
<circle cx="23.9688" cy="19.9692" r="8.38793" transform="rotate(22.6247 23.9688 19.9692)" fill="#5CC3F6"/>
<circle cx="23.9311" cy="233.725" r="17.9294" transform="rotate(6.06978 23.9311 233.725)" fill="url(#paint2_radial)" fill-opacity="0.2"/>
<circle cx="23.5137" cy="225.969" r="8.38793" transform="rotate(22.6247 23.5137 225.969)" fill="#5CC3F6"/>
<circle cx="23.7241" cy="340.725" r="17.9294" transform="rotate(6.06978 23.7241 340.725)" fill="url(#paint3_radial)" fill-opacity="0.2"/>
<circle cx="23.5156" cy="340.969" r="8.38793" transform="rotate(22.6247 23.5156 340.969)" fill="#5CC3F6"/>
<circle cx="23.7221" cy="119.725" r="17.9294" transform="rotate(6.06978 23.7221 119.725)" fill="url(#paint4_radial)" fill-opacity="0.2"/>
<circle cx="23.5156" cy="119.969" r="8.38793" transform="rotate(22.6247 23.5156 119.969)" fill="#5CC3F6"/>
<path d="M24 25V342" stroke="#5CC3F6"/>
<path d="M26.9011 402.932C26.5984 403.189 26.2765 403.48 25.931 403.748C24.5683 404.801 23.6153 404.777 22.2637 403.71C20.6922 402.468 19.5475 400.872 18.601 399.149C16.7873 395.863 15.71 392.345 15.6343 388.569C15.6143 387.488 15.7271 386.401 15.8164 385.319C15.8451 384.983 15.7923 384.717 15.6183 384.43C14.7876 383.046 13.9531 381.662 13.1691 380.25C12.6424 379.301 12.3923 378.253 12.3879 377.163C12.3882 376.183 12.4198 375.199 12.4709 374.222C12.5153 373.382 13.0187 372.832 13.8104 372.685C14.563 372.546 15.2023 372.905 15.5673 373.648C15.8132 374.15 16.0591 374.648 16.3362 375.134C16.6252 375.643 17.0964 375.979 17.648 376.104C18.3521 376.259 19.0756 376.394 19.7942 376.4C22.4538 376.427 25.1131 376.402 27.7685 376.378C28.4011 376.373 29.0332 376.306 29.6613 376.219C30.7185 376.067 31.4402 375.46 31.8702 374.492C32.043 374.108 32.1922 373.708 32.4082 373.347C32.7552 372.759 33.417 372.485 34.0779 372.604C34.7075 372.721 35.2422 373.197 35.3139 373.884C35.508 375.788 35.8156 377.711 35.0839 379.568C34.8195 380.237 34.4533 380.869 34.1028 381.5C33.5904 382.422 33.0663 383.344 32.5069 384.238C32.2639 384.627 32.2159 384.99 32.27 385.431C32.9958 390.991 31.6325 396.058 28.6378 400.736C28.4409 401.042 28.2323 401.337 28.008 401.62C27.6559 402.048 27.2881 402.469 26.9011 402.932ZM22.1919 401.461C22.4595 401.725 22.6171 401.907 22.8057 402.058C24.1066 403.141 24.0717 403.181 25.384 402.171C25.4927 402.088 25.5857 401.99 25.6825 401.891C26.9416 400.566 27.922 399.055 28.7179 397.416C30.1558 394.445 30.9325 391.319 30.8643 388.016C30.7912 384.576 29.8878 381.341 28.2635 378.308C28.1486 378.09 28.0347 378.005 27.7848 378.007C25.2465 378.022 22.7121 378.022 20.1738 378.045C20.0098 378.046 19.7727 378.189 19.6996 378.334C17.449 382.787 16.6059 387.449 17.698 392.381C18.4545 395.819 19.958 398.893 22.1919 401.461ZM31.6557 382.21C33.4699 379.931 34.3838 377.386 33.65 374.361C33.0082 376.233 31.8107 377.449 29.8643 377.741C30.4734 379.259 31.0705 380.75 31.6557 382.21ZM14.1756 374.482C13.4452 377.538 14.48 380.092 16.2781 382.363C16.8333 380.906 17.4037 379.406 17.9819 377.894C15.9916 377.573 14.7989 376.329 14.1756 374.482Z" fill="white"/>
<path d="M22.1604 366.584C23.2685 365.427 24.342 365.376 25.3882 366.352C27.1897 368.033 27.9398 370.121 27.6187 372.564C27.4157 374.108 27.3883 374.105 25.8457 374.101C24.3812 374.1 22.9168 374.096 21.4522 374.087C20.7493 374.085 20.5527 373.911 20.4069 373.228C19.9778 371.24 20.1743 369.356 21.3445 367.645C21.6342 367.225 21.967 366.831 22.1604 366.584ZM26.0055 372.518C26.0086 371.901 26.0553 371.377 26.0045 370.858C25.8738 369.59 25.3732 368.473 24.4758 367.554C24.2357 367.31 23.9844 367.132 23.6117 367.416C22.2179 368.493 21.4499 370.717 21.9722 372.623C23.1198 372.563 24.3261 372.503 25.5324 372.447C25.6652 372.446 25.8022 372.488 26.0055 372.518Z" fill="white"/>
<path d="M21.8262 391.857C23.0818 390.594 25.1203 390.594 26.3797 391.857C27.635 393.113 27.6351 395.179 26.3832 396.419C25.1158 397.67 23.0811 397.67 21.8219 396.411C20.5587 395.155 20.5589 393.132 21.8262 391.857ZM22.9533 395.25C23.5948 395.893 24.579 395.901 25.2185 395.276C25.8543 394.654 25.8622 393.642 25.2364 393.006C24.6066 392.363 23.6068 392.355 22.9712 392.989C22.324 393.634 22.3158 394.61 22.9533 395.25Z" fill="white"/>
<defs>
<linearGradient id="paint0_linear" x1="24.5001" y1="1753.8" x2="22.0018" y2="1897.96" gradientUnits="userSpaceOnUse">
<stop stop-color="white"/>
<stop offset="1" stop-color="white" stop-opacity="0"/>
</linearGradient>
<radialGradient id="paint1_radial" cx="0" cy="0" r="1" gradientUnits="userSpaceOnUse" gradientTransform="translate(23.7241 19.7248) rotate(90) scale(17.9294)">
<stop stop-color="white"/>
<stop offset="1" stop-color="white" stop-opacity="0"/>
</radialGradient>
<radialGradient id="paint2_radial" cx="0" cy="0" r="1" gradientUnits="userSpaceOnUse" gradientTransform="translate(23.9311 233.725) rotate(90) scale(17.9294)">
<stop stop-color="white"/>
<stop offset="1" stop-color="white" stop-opacity="0"/>
</radialGradient>
<radialGradient id="paint3_radial" cx="0" cy="0" r="1" gradientUnits="userSpaceOnUse" gradientTransform="translate(23.7241 340.725) rotate(90) scale(17.9294)">
<stop stop-color="white"/>
<stop offset="1" stop-color="white" stop-opacity="0"/>
</radialGradient>
<radialGradient id="paint4_radial" cx="0" cy="0" r="1" gradientUnits="userSpaceOnUse" gradientTransform="translate(23.7221 119.725) rotate(90) scale(17.9294)">
<stop stop-color="white"/>
<stop offset="1" stop-color="white" stop-opacity="0"/>
</radialGradient>
</defs>
</svg>
