<svg width="24" height="24" viewBox="0 0 24 24" fill="none" xmlns="http://www.w3.org/2000/svg">
<path d="M7.64477 3.64477C7.28867 3.28867 6.71133 3.28867 6.35523 3.64477C4.43001 5.56999 4.21341 8.61788 5.84701 10.796L7.02857 12.3714C8.33622 14.115 9.88504 15.6638 11.6286 16.9714L13.204 18.153C15.3821 19.7866 18.43 19.57 20.3552 17.6448C20.7113 17.2887 20.7113 16.7113 20.3552 16.3552L17.7071 13.7071C17.3166 13.3166 16.6834 13.3166 16.2929 13.7071L15.2717 14.7283C15.1095 14.8905 14.8615 14.9308 14.6563 14.8281C12.2829 13.6415 10.3585 11.7171 9.17187 9.34373C9.06923 9.13846 9.10946 8.89054 9.27175 8.72825L10.2929 7.70711C10.6834 7.31658 10.6834 6.68342 10.2929 6.29289L7.64477 3.64477Z" fill="#6E7272" fill-opacity="0.3"/>
</svg>
