<svg width="80" height="80" viewBox="0 0 80 80" fill="none" xmlns="http://www.w3.org/2000/svg">
<g filter="url(#filter0_d_6_99)">
<rect x="8" y="6" width="64" height="64" rx="2" fill="white"/>
<rect x="8.5" y="6.5" width="63" height="63" rx="1.5" stroke="#E1251B"/>
<path d="M19.0004 31.4259V20.09C19.0004 19.4836 19.3574 18.9349 19.9103 18.6874C23.9588 16.8856 28.0074 16.4329 32.0538 17.7875V29.3267V31.8057C27.7039 30.595 23.35 30.4703 19.0004 31.4259Z" fill="#E1251B"/>
<path d="M35.1249 17.8585C38.7088 16.713 42.2927 16.7187 45.8747 17.8623V27.3429C42.2927 26.0785 38.7068 26.0727 35.1249 27.1319V17.8585Z" fill="#E1251B" fill-opacity="0.4"/>
<path d="M45.8752 59.4895C42.2932 58.1234 38.7073 58.083 35.1254 59.4818V50.2566C38.7074 48.7945 42.2932 48.6602 45.8752 50.5847V59.4895Z" fill="#E1251B" fill-opacity="0.4"/>
<path d="M61.9997 34.9777V44.059C57.6498 42.8195 53.2961 42.8502 48.9466 44.0743V34.9773C53.2964 33.4999 57.6501 33.4984 61.9997 34.9777Z" fill="#E1251B" fill-opacity="0.4"/>
<path fill-rule="evenodd" clip-rule="evenodd" d="M61.092 18.6894C57.0437 16.8742 52.995 16.5039 48.9466 17.8221L48.9469 31.756C53.2965 30.4705 57.6501 30.4686 62 31.756V20.0901C62 19.4857 61.6449 18.9369 61.092 18.6894ZM61.9997 58.4649V47.2709C57.6501 45.8453 53.296 45.8895 48.9461 47.2805V59.4568C52.5743 57.966 56.1986 58.2077 59.8266 59.8617C60.3008 60.0785 60.8536 60.0382 61.2952 59.7562C61.7347 59.4741 61.9997 58.9868 61.9997 58.4649ZM21.1558 59.8692C24.7898 58.2632 28.4216 57.9811 32.0535 59.4586L32.0531 49.2797V47.3015C27.7035 45.989 23.3499 45.8854 19 46.9043V58.4646C19 58.9827 19.263 59.4662 19.6968 59.7502C20.1326 60.0342 20.6816 60.0783 21.1558 59.8692ZM35.1249 30.3569V33.9354V46.1558V46.979C38.7068 45.7548 42.2927 45.6896 45.8747 47.1862V46.2134V33.9334V30.639C42.2927 29.0886 38.7069 29.102 35.1249 30.3569Z" fill="#E1251B"/>
<path d="M19.0004 43.7579V34.5803C23.3502 33.5039 27.7039 33.6459 32.0535 35.0082V44.1086C27.7036 42.9401 23.35 42.8446 19.0004 43.7579Z" fill="#E1251B" fill-opacity="0.4"/>
</g>
<defs>
<filter id="filter0_d_6_99" x="0" y="0" width="80" height="80" filterUnits="userSpaceOnUse" color-interpolation-filters="sRGB">
<feFlood flood-opacity="0" result="BackgroundImageFix"/>
<feColorMatrix in="SourceAlpha" type="matrix" values="0 0 0 0 0 0 0 0 0 0 0 0 0 0 0 0 0 0 127 0" result="hardAlpha"/>
<feOffset dy="2"/>
<feGaussianBlur stdDeviation="4"/>
<feComposite in2="hardAlpha" operator="out"/>
<feColorMatrix type="matrix" values="0 0 0 0 0.295833 0 0 0 0 0.110913 0 0 0 0 0.101076 0 0 0 0.5 0"/>
<feBlend mode="normal" in2="BackgroundImageFix" result="effect1_dropShadow_6_99"/>
<feBlend mode="normal" in="SourceGraphic" in2="effect1_dropShadow_6_99" result="shape"/>
</filter>
</defs>
</svg>
