<svg width="16" height="14" viewBox="0 0 16 14" fill="none" xmlns="http://www.w3.org/2000/svg">
<path d="M0.25574 7.96623L6.0339 13.7445C6.19885 13.9095 6.41868 14 6.65308 14C6.88775 14 7.10746 13.9093 7.2724 13.7445L7.79701 13.2198C7.96182 13.0551 8.05262 12.8351 8.05262 12.6006C8.05262 12.3662 7.96182 12.1388 7.79701 11.9741L4.42611 8.59582L15.1356 8.59581C15.6185 8.59581 16 8.2178 16 7.73481L16 6.99297C16 6.50998 15.6185 6.09385 15.1356 6.09385L4.38787 6.09385L7.79688 2.69667C7.96169 2.53173 8.05249 2.31775 8.05249 2.08321C8.05249 1.84894 7.96169 1.63184 7.79688 1.46702L7.27227 0.943972C7.10732 0.77903 6.88762 0.689145 6.65295 0.689145C6.41855 0.689145 6.19872 0.7802 6.03377 0.945142L0.255609 6.72331C0.0902771 6.88877 -0.000649101 7.10965 2.27918e-06 7.34444C-0.000517453 7.58002 0.0902771 7.80102 0.25574 7.96623Z" fill="white"/>
</svg>
