<svg width="106" height="106" viewBox="0 0 106 106" fill="none" xmlns="http://www.w3.org/2000/svg">
<path d="M53.0605 105C55.8455 105 58.3395 103.306 60.4631 100.611C62.5957 97.9052 64.4724 94.0515 66.03 89.3787C69.1487 80.0226 71.0605 67.1608 71.0605 53C71.0605 38.8392 69.1487 25.9774 66.03 16.6213C64.4724 11.9485 62.5957 8.09485 60.4631 5.38886C58.3395 2.69415 55.8455 1 53.0605 1C50.2756 1 47.7816 2.69415 45.658 5.38886C43.5254 8.09485 41.6487 11.9485 40.091 16.6213C36.9723 25.9774 35.0605 38.8392 35.0605 53C35.0605 67.1608 36.9723 80.0226 40.091 89.3787C41.6487 94.0515 43.5254 97.9052 45.658 100.611C47.7816 103.306 50.2756 105 53.0605 105Z" stroke="white" stroke-width="2"/>
<path d="M7.90186 81.9905C9.32473 84.4549 12.0604 85.835 15.4935 86.3856C18.9369 86.9378 23.2435 86.6877 28.0957 85.7424C37.8101 83.8499 49.9377 79.1257 62.2037 72.044C74.4696 64.9622 84.6247 56.8215 91.1209 49.3548C94.3656 45.6253 96.7355 42.0207 97.979 38.7626C99.2187 35.5141 99.3914 32.4549 97.9685 29.9905C96.5456 27.526 93.81 26.1459 90.3768 25.5953C86.9335 25.0432 82.6269 25.2933 77.7747 26.2385C68.0603 28.131 55.9326 32.8552 43.6667 39.937C31.4008 47.0187 21.2456 55.1594 14.7495 62.6261C11.5048 66.3556 9.13487 69.9602 7.89141 73.2183C6.65162 76.4668 6.47899 79.526 7.90186 81.9905Z" stroke="white" stroke-width="2"/>
<path d="M8.12065 29.2797C6.68243 31.7352 6.83598 34.7954 8.05547 38.0516C9.27859 41.3174 11.626 44.9367 14.8473 48.6863C21.2968 56.1934 31.4009 64.3973 43.6224 71.5555C55.844 78.7136 67.9419 83.5134 77.6443 85.4664C82.4905 86.4419 86.7955 86.7189 90.2422 86.1882C93.6787 85.6591 96.4229 84.2961 97.8611 81.8405C99.2994 79.385 99.1458 76.3247 97.9263 73.0686C96.7032 69.8028 94.3558 66.1835 91.1345 62.4339C84.685 54.9268 74.5809 46.7228 62.3594 39.5647C50.1378 32.4066 38.0399 27.6068 28.3375 25.6538C23.4913 24.6782 19.1863 24.4013 15.7396 24.932C12.3031 25.4611 9.55887 26.8241 8.12065 29.2797Z" stroke="white" stroke-width="2"/>
<circle cx="52.546" cy="56.515" r="2.59091" fill="#5CC3F6" stroke="white"/>
<circle cx="39.212" cy="18.3939" r="2.59091" fill="#5CC3F6" stroke="white"/>
<circle cx="75.1515" cy="26.7274" r="2.59091" fill="#5CC3F6" stroke="white"/>
<circle cx="91.6378" cy="62.6969" r="2.59091" fill="#5CC3F6" stroke="white"/>
<circle cx="63.878" cy="93.6063" r="2.59091" fill="#5CC3F6" stroke="white"/>
<circle cx="27.8175" cy="85.3031" r="2.59091" fill="#5CC3F6" stroke="white"/>
<circle cx="13.4542" cy="47.2728" r="2.59091" fill="#5CC3F6" stroke="white"/>
</svg>
