<svg width="31" height="45" viewBox="0 0 31 45" fill="none" xmlns="http://www.w3.org/2000/svg">
<path d="M7.66348 45C11.8915 45 15.3231 41.64 15.3231 37.5V30H7.66348C3.43543 30 0.00390625 33.36 0.00390625 37.5C0.00390625 41.64 3.43543 45 7.66348 45Z" fill="#0ACF83"/>
<path d="M0.00390625 22.4995C0.00390625 18.3595 3.43543 14.9995 7.66348 14.9995H15.3231V29.9993H7.66348C3.43543 29.9995 0.00390625 26.6395 0.00390625 22.4995Z" fill="#A259FF"/>
<path d="M0.00390625 7.50001C0.00390625 3.36004 3.43543 0 7.66348 0H15.3231V14.9998H7.66348C3.43543 14.9998 0.00390625 11.64 0.00390625 7.50001Z" fill="#F24E1E"/>
<path d="M15.3223 0H22.9818C27.2099 0 30.6414 3.36004 30.6414 7.50001C30.6414 11.64 27.2099 14.9998 22.9818 14.9998H15.3223V0Z" fill="#FF7262"/>
<path d="M30.6414 22.4995C30.6414 26.6395 27.2099 29.9995 22.9818 29.9995C18.7538 29.9995 15.3223 26.6395 15.3223 22.4995C15.3223 18.3595 18.7538 14.9995 22.9818 14.9995C27.2099 14.9995 30.6414 18.3595 30.6414 22.4995Z" fill="#1ABCFE"/>
</svg>
