<svg width="51" height="53" viewBox="0 0 51 53" fill="none" xmlns="http://www.w3.org/2000/svg">
<path d="M37.8014 37.4286C38.1376 34.6715 38.0371 34.267 40.1222 34.7134L40.6516 34.7595C42.2552 34.8313 44.3531 34.5054 45.5849 33.9416C48.2377 32.7296 49.8105 30.705 47.1949 31.2368C41.2278 32.4488 40.8176 30.4598 40.8176 30.4598C47.1188 21.253 49.753 9.56633 47.4795 6.70543C41.2789 -1.09759 30.5451 2.59224 30.3653 2.68812L30.3078 2.69913C29.1288 2.45758 27.8098 2.31401 26.3275 2.29043C23.6272 2.24694 21.5783 2.98784 20.0241 4.14844C20.0241 4.14844 0.875793 -3.62052 1.76646 13.9185C1.95588 17.6497 7.19721 42.1512 13.4484 34.7506C15.7331 32.0448 17.9411 29.7566 17.9411 29.7566C19.0377 30.4739 20.3503 30.8397 21.7273 30.7082L21.8337 30.6191C21.8007 30.9549 21.8151 31.2835 21.8768 31.6723C20.2662 33.4449 20.7398 33.7561 17.5197 34.4085C14.2624 35.0697 16.1763 36.2466 17.425 36.5541C18.9403 36.9277 22.4439 37.4564 24.8122 34.1915L24.718 34.5641C25.3501 35.0619 25.307 38.1412 25.3964 40.3414C25.4857 42.5416 25.6358 44.5945 26.0912 45.8059C26.5467 47.0163 27.084 50.1345 31.3155 49.2416C34.8516 48.4944 37.555 47.4203 37.8014 37.4286Z" fill="black"/>
<path d="M29.7153 53C27.877 53 26.6804 52.2695 25.953 51.5638C24.8557 50.4997 24.4204 49.1285 24.1607 48.3094L24.0483 47.9673C23.5248 46.5144 23.3476 44.4229 23.2426 41.7298C23.2269 41.3259 23.2154 40.9085 23.2034 40.4665C23.1945 40.1437 23.1835 39.7387 23.1679 39.3139C22.5147 39.6356 21.8155 39.8628 21.0793 39.9928C19.7834 40.2205 18.3903 40.1464 16.9376 39.7731C15.9129 39.5099 14.848 38.9642 14.2413 38.1209C12.4725 39.7135 10.7852 39.497 9.86606 39.1823C8.24461 38.6263 6.79352 37.065 5.42916 34.4073C4.45776 32.5151 3.51771 30.0487 2.63513 27.0779C1.09886 21.9039 0.122756 16.4544 0.0360137 14.6658C-0.236753 9.06531 1.2295 5.0606 4.39401 2.76337C9.38689 -0.861599 16.9507 1.26966 19.7081 2.23754C21.5605 1.08973 23.74 0.530596 26.2033 0.571416C27.5264 0.593438 28.7857 0.713214 29.9557 0.926985C31.1758 0.532744 33.5868 -0.0333718 36.3464 0.00154046C41.4307 0.0638455 45.6439 2.10057 48.5299 5.89151C50.5893 8.59641 49.5714 14.2758 48.7808 17.4212C47.6693 21.8443 45.7207 26.5499 43.3275 30.6459C43.9776 30.6508 44.9186 30.5702 46.2574 30.2866C48.8983 29.7259 49.6701 31.1814 49.8797 31.833C50.7194 34.4471 47.0694 36.422 45.9308 36.9651C44.4719 37.6617 42.0938 38.0855 40.1458 37.9936L40.0606 37.9877L39.549 37.9415L39.4983 38.3798L39.4497 38.809C39.3191 43.9996 38.5975 47.2867 37.1129 49.4594C35.5573 51.7362 33.3945 52.3748 31.4899 52.7943C30.8414 52.9377 30.2509 53 29.7153 53ZM25.8475 34.1076C27.0342 35.0836 27.1381 36.9199 27.2306 40.3521C27.2421 40.7802 27.2531 41.1857 27.2677 41.5644C27.3127 42.7105 27.4177 45.395 27.8263 46.5294C27.8843 46.6895 27.9361 46.8528 27.9904 47.0246C28.4461 48.4598 28.6749 49.179 30.6454 48.745C32.3003 48.3808 33.1505 48.0537 33.8162 47.0794C34.784 45.6625 35.3253 42.8142 35.4246 38.6108L37.4374 38.6613L35.4382 38.4147L35.4967 37.9018C35.6885 36.211 35.8264 34.9885 36.9264 34.1807C37.8084 33.5324 38.8143 33.5952 39.6154 33.7435C38.7354 33.0608 38.4919 32.2583 38.4271 31.9296L38.2594 31.0799L38.7307 30.3602C41.4479 26.2158 43.6891 21.1224 44.8795 16.3856C46.1022 11.5183 45.7291 8.93318 45.3565 8.44441C40.4206 1.96093 31.8598 4.63735 30.9663 4.9419L30.8147 5.02569L30.0571 5.17124L29.6688 5.08853C28.5992 4.86026 27.4109 4.73404 26.1364 4.71255C24.1346 4.67818 22.5199 5.16426 21.1958 6.19713L20.2772 6.9131L19.2107 6.46139C16.9334 5.50425 10.2428 3.57978 6.71252 6.14986C4.75299 7.57643 3.86049 10.3721 4.05906 14.459C4.12438 15.8082 5.01688 20.9156 6.48731 25.8699C8.52052 32.716 10.3682 34.9896 11.1395 35.2544C11.2738 35.3011 11.6234 35.0218 11.9709 34.5932C14.2314 31.7986 16.3811 29.4691 16.4715 29.3708L17.6373 28.1102L19.0466 29.0727C19.6146 29.4611 20.2411 29.6807 20.8849 29.7221L24.2464 26.7755L23.7594 31.8834C23.7484 31.9984 23.7432 32.1541 23.7871 32.4442L23.9334 33.4126L23.2995 34.142L23.2264 34.2263L25.0731 35.1029L25.8475 34.1076Z" fill="black"/>
<path d="M47.1955 32.1006C41.2281 33.3124 40.8179 31.3231 40.8179 31.3231C47.1183 22.1174 49.7519 10.4314 47.4791 7.57132C41.2781 -0.230851 30.5447 3.4591 30.3654 3.55497L30.3074 3.56493C29.1284 3.32445 27.8094 3.1809 26.3266 3.15732C23.6265 3.11384 21.5781 3.85413 20.024 5.01461C20.024 5.01461 0.875822 -2.75299 1.76646 14.7841C1.95587 18.5149 7.19702 43.0138 13.448 35.614C15.7326 32.9085 17.94 30.6205 17.94 30.6205C19.0366 31.3378 20.3491 31.7035 21.7255 31.572L21.8325 31.4829C21.7995 31.8187 21.8144 32.1472 21.875 32.536C20.2651 34.3084 20.7375 34.6196 17.5187 35.2719C14.261 35.9331 16.1747 37.1098 17.4245 37.4173C18.9392 37.7909 22.4432 38.3195 24.8108 35.055L24.7161 35.4275C25.3471 35.9252 25.7903 38.6648 25.7158 41.1481C25.6414 43.6315 25.5919 45.3363 26.0893 46.6681C26.5868 47.9994 27.0821 50.9962 31.314 50.1034C34.85 49.3569 36.6823 47.4231 36.9377 44.1978C37.1186 41.9047 37.5277 42.2436 37.5538 40.193L37.8826 39.2222C38.2609 36.1133 37.9427 35.1105 40.1214 35.5773L40.6508 35.6229C42.2544 35.6952 44.3528 35.3688 45.5844 34.8051C48.2372 33.5927 49.8105 31.5688 47.1955 32.1006Z" fill="#336791"/>
<path d="M30.0494 51.1334C26.6216 51.1339 25.536 48.3705 25.0915 47.2406C24.4417 45.5849 24.3011 39.158 24.4458 33.8874C24.4562 33.5137 24.7596 33.2185 25.1287 33.2301C25.4952 33.2406 25.7842 33.5516 25.7743 33.9253C25.6074 40.0043 25.8446 45.5128 26.3254 46.738C27.0765 48.6494 28.2153 50.3214 31.4363 49.6193C34.494 48.9515 35.639 47.771 36.1487 44.7618C36.5406 42.452 37.3139 35.8814 37.409 34.5847C37.4364 34.2121 37.7538 33.9321 38.1208 33.9605C38.4868 33.9884 38.7613 34.3131 38.7339 34.6852C38.6347 36.0346 37.8644 42.593 37.4576 44.9918C36.8554 48.5468 35.2989 50.1593 31.7144 50.9418C31.106 51.0739 30.5524 51.1334 30.0494 51.1334ZM11.465 37.6371C11.1378 37.6376 10.8411 37.5766 10.5842 37.4892C8.35775 36.733 6.23728 33.0417 4.2812 26.5169C2.79242 21.5499 1.84901 16.3661 1.7663 14.6815C1.52076 9.68718 2.78467 6.15325 5.52184 4.17867C10.9373 0.272135 20.0477 3.99237 20.4328 4.15236C20.7725 4.29392 20.9353 4.68863 20.7963 5.03439C20.6577 5.37963 20.2695 5.54593 19.9304 5.40436V5.40489C19.8425 5.36805 11.1063 1.80517 6.28742 5.28437C3.94674 6.97424 2.87203 10.1129 3.09276 14.6147C3.16255 16.0335 4.04392 21.0937 5.55182 26.1227C7.29803 31.947 9.28565 35.623 11.0045 36.2062C11.2738 36.2983 12.0947 36.5766 13.2692 35.1399C15.4775 32.4349 17.5065 30.2761 17.5266 30.2545C17.7804 29.9845 18.2012 29.9761 18.4659 30.234C18.7306 30.4924 18.7399 30.9208 18.4861 31.1902C18.4659 31.2113 16.4679 33.338 14.2906 36.0046C13.2593 37.2666 12.2704 37.6371 11.465 37.6371ZM40.3721 31.9381C40.2444 31.9381 40.1152 31.9007 40.0014 31.8223C39.697 31.6139 39.6163 31.1934 39.8215 30.8834C46.0098 21.5347 48.1819 10.2392 46.3215 7.81944C43.9798 4.77336 40.6729 3.18191 36.4935 3.09086C33.3986 3.02244 30.9385 3.82712 30.5369 3.96763L30.4361 4.00921C30.0318 4.13867 29.7217 3.9129 29.6048 3.64924C29.4663 3.33716 29.58 2.96824 29.8674 2.79088L30.0463 2.71615L30.0375 2.71878L30.0468 2.71563C30.7297 2.46144 33.227 1.69834 36.3209 1.73465C40.9459 1.78412 44.766 3.60029 47.3683 6.98529C48.5996 8.58727 48.6022 12.278 47.376 17.1108C46.1261 22.0378 43.774 27.3337 40.9237 31.6397C40.7955 31.8339 40.5856 31.9381 40.3721 31.9381ZM40.6879 36.2656C39.6313 36.2656 38.6843 36.1146 38.1172 35.7683C37.5341 35.4131 37.423 34.9294 37.4085 34.6731C37.2493 31.8291 38.7908 31.3339 39.577 31.1081C39.4674 30.9397 39.3113 30.7413 39.1506 30.5366C38.692 29.9535 38.0645 29.1546 37.5806 27.96C37.5052 27.7737 37.2674 27.3395 36.9924 26.8374C35.502 24.1171 32.4015 18.456 34.3932 15.5567C35.3154 14.2152 37.1505 13.6874 39.8551 13.9821C39.0596 11.5144 35.2704 3.79449 26.2809 3.6445C23.5768 3.59819 21.3592 4.44496 19.6931 6.15746C15.9624 9.99348 16.0978 16.934 16.0994 17.0029C16.1092 17.3766 15.8192 17.6871 15.4527 17.6966C15.0857 17.7081 14.7807 17.4118 14.7714 17.0382C14.7631 16.7303 14.6235 9.4472 18.7492 5.20543C20.6799 3.22032 23.2212 2.2404 26.3026 2.29145C32.0551 2.38776 35.7569 5.36437 37.8499 7.84522C40.1307 10.5482 41.2493 13.53 41.3413 14.5247C41.4101 15.2646 40.8885 15.4131 40.783 15.4346L40.5437 15.4404C37.8892 15.0078 36.1865 15.3078 35.4824 16.3325C33.9673 18.5365 36.9003 23.8913 38.1529 26.1785C38.4729 26.7616 38.7034 27.1832 38.8089 27.4437C39.2203 28.4594 39.7569 29.142 40.188 29.6903C40.567 30.1729 40.8957 30.5908 41.0136 31.0823C41.0679 31.1797 41.8422 32.3449 46.4352 31.3797C47.5864 31.1381 48.2765 31.345 48.4874 31.9944C48.9025 33.2727 46.5738 34.7631 45.2845 35.3731C44.1276 35.9199 42.2837 36.2656 40.6879 36.2656ZM38.7334 34.5615C38.8787 34.7115 39.6075 34.9694 41.1175 34.9036C42.4595 34.8447 43.8754 34.5473 44.7252 34.1463C45.8118 33.6327 46.5365 33.0585 46.9123 32.6664L46.7035 32.7054C43.7668 33.3227 41.6897 33.2406 40.5303 32.4607C40.447 32.4054 40.3731 32.3475 40.3054 32.2907C40.1798 32.3412 40.0635 32.3743 39.9808 32.398C39.3227 32.5859 38.6424 32.7801 38.7334 34.5615ZM19.7634 38.3397C19.034 38.3397 18.2664 38.2392 17.4822 38.0386C16.6701 37.8318 15.3002 37.2092 15.3214 36.1867C15.3446 35.0389 16.9839 34.6947 17.6016 34.5652C19.8306 34.0979 19.9759 33.9105 20.6727 33.0101C20.8759 32.7475 21.1286 32.4207 21.4729 32.0286C21.9847 31.446 22.544 31.1502 23.1354 31.1502C23.5469 31.1502 23.8849 31.2929 24.1077 31.3865C24.819 31.6865 25.4125 32.4117 25.6565 33.2801C25.8767 34.0632 25.7718 34.8168 25.3608 35.402C24.0126 37.3245 22.0772 38.3397 19.7634 38.3397ZM16.7564 36.2451C16.957 36.4025 17.3581 36.613 17.8042 36.7272C18.4835 36.8998 19.1421 36.9877 19.7634 36.9877C21.6564 36.9877 23.1757 36.1893 24.2799 34.6163C24.5099 34.2879 24.4412 33.8716 24.3796 33.6521C24.2504 33.1932 23.9299 32.7759 23.5996 32.6359C23.4202 32.5601 23.2719 32.5022 23.1354 32.5022C23.062 32.5022 22.8392 32.5022 22.4634 32.9301C22.146 33.2911 21.918 33.5858 21.7159 33.8463C20.8485 34.9678 20.4509 35.3483 17.8694 35.8899C17.2397 36.0225 16.9166 36.1562 16.7564 36.2451ZM21.8648 33.1253C21.5422 33.1253 21.2594 32.8859 21.2088 32.5517C21.1917 32.4396 21.1809 32.3265 21.1757 32.2128C19.4832 32.1802 17.8508 31.4413 16.6117 30.1245C15.0448 28.4599 14.3315 26.1538 14.6551 23.7977C15.0066 21.2389 14.8753 18.9801 14.8045 17.7666C14.7848 17.4292 14.7709 17.1855 14.7719 17.0166C14.7729 16.8029 14.7771 16.2351 16.6406 15.2736C17.3033 14.9315 18.6324 14.3347 20.0839 14.1816C22.4897 13.929 24.0752 15.0194 24.5497 17.2529C25.8307 23.284 24.651 25.9517 23.7898 27.8994C23.6291 28.2615 23.4776 28.6046 23.3566 28.9362L23.2496 29.2293C22.7947 30.4713 22.4013 31.5444 22.5223 32.3465C22.5776 32.7159 22.329 33.0606 21.9666 33.118L21.8648 33.1253ZM16.1045 17.2034L16.1309 17.6866C16.2043 18.947 16.3408 21.2931 15.9707 23.9855C15.7039 25.9285 16.287 27.8258 17.5706 29.1893C18.5848 30.2671 19.9206 30.8618 21.293 30.8618H21.3215C21.4755 30.2024 21.7304 29.5067 22.0048 28.7567L22.1113 28.4657C22.2483 28.091 22.4086 27.7284 22.5781 27.3447C23.4073 25.4691 24.4391 23.1345 23.2507 17.5387C23.0149 16.4309 22.4442 15.7893 21.506 15.5778C19.5789 15.1441 16.7073 16.6198 16.1045 17.2034ZM20.1139 16.9166C20.0808 17.1555 20.5445 17.7939 21.1483 17.8792C21.7515 17.965 22.268 17.466 22.3005 17.2271C22.3331 16.9877 21.8699 16.7245 21.2656 16.6387C20.6624 16.553 20.1459 16.6772 20.1139 16.9166ZM21.2873 18.1149L21.1178 18.1028C20.743 18.0497 20.3641 17.8092 20.1051 17.4592C20.0141 17.3366 19.8652 17.0977 19.8947 16.885C19.9371 16.573 20.3103 16.3867 20.894 16.3867C21.0247 16.3867 21.1602 16.3967 21.2972 16.4156C21.6156 16.4609 21.9118 16.5545 22.1305 16.6787C22.5094 16.8945 22.5373 17.1345 22.5202 17.2592C22.4732 17.6029 21.9345 18.1149 21.2873 18.1149ZM20.3341 16.9566C20.3532 17.104 20.7115 17.5908 21.1788 17.6566L21.2868 17.6645C21.7179 17.6645 22.0405 17.3187 22.0783 17.2055C22.0384 17.1287 21.7614 16.9366 21.2351 16.8629C21.1188 16.8461 21.0035 16.8377 20.8934 16.8377C20.5564 16.8371 20.376 16.9145 20.3341 16.9566ZM38.4894 16.4288C38.522 16.6682 38.0593 17.3066 37.455 17.3918C36.8512 17.4771 36.3348 16.9787 36.3017 16.7393C36.2697 16.5003 36.7329 16.2367 37.3366 16.1514C37.9404 16.0651 38.4563 16.1904 38.4894 16.4288ZM37.316 17.5139C36.7344 17.5139 36.2335 17.0534 36.1921 16.7551C36.1446 16.3967 36.7241 16.124 37.3216 16.0398C37.4529 16.0209 37.5832 16.0114 37.7088 16.0114C38.2242 16.0114 38.5654 16.1656 38.5995 16.4135C38.6217 16.5745 38.5008 16.8224 38.2919 17.0456C38.1544 17.1929 37.8649 17.4482 37.471 17.5034L37.316 17.5139ZM37.7083 16.2367C37.593 16.2367 37.4731 16.2456 37.3516 16.2625C36.7509 16.3472 36.3937 16.593 36.4108 16.7245C36.431 16.8687 36.814 17.2887 37.3154 17.2887L37.439 17.2797C37.7667 17.2329 38.0128 17.0156 38.1301 16.8898C38.3142 16.6924 38.3876 16.5072 38.3788 16.4435C38.3679 16.3609 38.1467 16.2367 37.7083 16.2367ZM39.3594 30.1582C39.2322 30.1582 39.104 30.1214 38.9903 30.044C38.6853 29.8356 38.6036 29.4162 38.8078 29.1057C40.2222 26.9548 39.9632 24.7607 39.713 22.6399C39.606 21.7357 39.4959 20.8016 39.5248 19.9043C39.5538 18.9817 39.6685 18.2207 39.7802 17.4839C39.912 16.6119 40.0366 15.7872 39.9849 14.8094C39.9647 14.4368 40.2459 14.1184 40.6125 14.0974C40.98 14.0774 41.2917 14.3637 41.3119 14.7368C41.3708 15.8546 41.2297 16.7872 41.0932 17.6897C40.9877 18.386 40.8787 19.1059 40.8523 19.9474C40.827 20.7416 40.9268 21.5852 41.0322 22.4778C41.2989 24.7339 41.6003 27.2911 39.912 29.8577C39.7838 30.0524 39.5734 30.1582 39.3594 30.1582Z" fill="white"/>
</svg>
