<svg width="54" height="33" viewBox="0 0 54 33" fill="none" xmlns="http://www.w3.org/2000/svg">
<path fill-rule="evenodd" clip-rule="evenodd" d="M1.6582 32.9998H20.3436C20.3436 32.9998 16.772 16.6658 28.5982 10.0515C31.1763 8.79508 39.3837 4.10112 52.8182 14.058C53.244 13.7024 53.646 13.4179 53.646 13.4179C53.646 13.4179 41.3468 1.11406 27.6521 2.48906C20.7693 3.10544 12.3018 9.38775 7.33476 17.6852C2.36777 25.9825 1.6582 32.9998 1.6582 32.9998Z" fill="#CC0000"/>
<path fill-rule="evenodd" clip-rule="evenodd" d="M1.6582 32.9998H20.3436C20.3436 32.9998 16.772 16.6658 28.5982 10.0515C31.1763 8.79508 39.3837 4.10112 52.8182 14.058C53.244 13.7024 53.646 13.4179 53.646 13.4179C53.646 13.4179 41.3468 1.11406 27.6521 2.48906C20.7693 3.10544 12.3018 9.38775 7.33476 17.6852C2.36777 25.9825 1.6582 32.9998 1.6582 32.9998Z" fill="#CC0000"/>
<path fill-rule="evenodd" clip-rule="evenodd" d="M1.6582 33.0002H20.3436C20.3436 33.0002 16.772 16.6661 28.5982 10.0519C31.1763 8.79547 39.3837 4.10151 52.8182 14.0584C53.244 13.7028 53.646 13.4183 53.646 13.4183C53.646 13.4183 41.3468 1.11444 27.6521 2.48944C20.7456 3.10582 12.2781 9.38814 7.31111 17.6855C2.34412 25.9829 1.6582 33.0002 1.6582 33.0002ZM40.59 3.81703L40.6846 2.22867C40.4717 2.11013 39.8804 1.82565 38.3903 1.39893L38.2957 2.96358C39.0762 3.22435 39.8331 3.50884 40.59 3.81703Z" fill="#CC0000"/>
<path fill-rule="evenodd" clip-rule="evenodd" d="M38.3444 8.84265L38.2497 10.3362C39.0303 10.3599 39.8108 10.4547 40.5913 10.6207L40.6859 9.15084C39.8818 8.98489 39.1012 8.89006 38.3444 8.84265ZM29.593 1.44612H29.8295L29.3565 0C28.6232 0 27.8664 0.0474137 27.0858 0.142241L27.5352 1.54094C28.2211 1.46982 28.9071 1.44612 29.593 1.44612ZM30.7283 10.1702L31.2723 11.806C31.9582 11.4741 32.6441 11.1896 33.3301 10.9763L32.8097 9.41161C32.0055 9.64868 31.3196 9.90946 30.7283 10.1702ZM19.9901 3.93533L18.9258 2.29956C18.3345 2.60775 17.7195 2.93965 17.0809 3.31896L18.1689 4.97844C18.7839 4.59913 19.3752 4.24352 19.9901 3.93533ZM24.8389 14.6034L25.9742 16.3103C26.3763 15.7176 26.8493 15.1724 27.3697 14.6271L26.3053 13.0151C25.7613 13.5129 25.2646 14.0582 24.8389 14.6034ZM21.4093 22.237L23.3251 23.7542C23.4197 22.8297 23.5853 21.9051 23.8218 20.9805L22.1188 19.6293C21.8114 20.5064 21.5985 21.3836 21.4093 22.237ZM11.0495 10.9763L9.37023 9.50644C8.75527 10.0991 8.16396 10.6918 7.61996 11.2845L9.44119 12.8491C9.93789 12.209 10.4819 11.5689 11.0495 10.9763ZM3.90654 21.5732L1.18652 20.5775C0.737129 21.5969 0.24043 22.7823 0.00390625 23.4224L2.72393 24.418C3.03141 23.612 3.52811 22.4504 3.90654 21.5732ZM21.0545 28.2585C21.1018 29.515 21.2201 30.5344 21.3383 31.2456L24.1766 32.265C23.9637 31.3404 23.7509 30.2973 23.6089 29.1831L21.0545 28.2585Z" fill="#CC0000"/>
</svg>
