<svg width="58" height="58" viewBox="0 0 58 58" fill="none" xmlns="http://www.w3.org/2000/svg">
<path d="M50.0026 17.3335L47.6693 47.6668L17.3359 50.0002L50.0026 17.3335Z" fill="#9B1010"/>
<path d="M33.6699 33.6668L47.6699 47.6668L50.0033 17.3335L33.6699 33.6668Z" fill="#B71C1C"/>
<path d="M38.6244 38.6223C48.9307 28.316 52.9776 15.6531 47.6633 10.3389C42.3491 5.02469 29.6862 9.07158 19.3799 19.3779C9.07365 29.6842 5.02676 42.3471 10.341 47.6613C15.6552 52.9755 28.3181 48.9286 38.6244 38.6223Z" fill="#C62828"/>
<path d="M12.6686 20.8333L20.8353 12.6667L30.1686 8L37.1686 12.6667L33.6686 23.1667L23.1686 32.5L12.6686 36L8.00195 29L12.6686 20.8333Z" fill="#E53935"/>
<path d="M37.1686 12.6667L30.1686 8H43.002L37.1686 12.6667ZM50.002 18.5L37.1686 12.6667L33.6686 23.1667L50.002 18.5ZM23.1686 32.5L38.6095 38.6075L33.6686 23.1667L23.1686 32.5ZM12.6686 36L17.3353 50L23.1686 32.5L12.6686 36ZM8.00195 29V41.8333L12.6686 36L8.00195 29Z" fill="#FF5252"/>
</svg>
