<svg width="48" height="46" viewBox="0 0 48 46" fill="none" xmlns="http://www.w3.org/2000/svg">
<path d="M38.6811 46H8.32667C3.72443 46 0.00390625 42.2653 0.00390625 37.6455V8.35454C0.00390625 3.73473 3.72443 0 8.32667 0H38.6811C43.2834 0 47.0039 3.73473 47.0039 8.35454V37.6455C47.0039 42.2653 43.2834 46 38.6811 46Z" fill="#FF26BE"/>
<path d="M37.9777 44.0334H9.11219C5.19615 44.0334 2.00391 40.829 2.00391 36.898V9.10173C2.00391 5.17074 5.19615 1.96631 9.11219 1.96631H37.9589C41.8956 1.96631 45.0672 5.17074 45.0672 9.10173V36.8791C45.086 40.829 41.8937 44.0334 37.9777 44.0334Z" fill="#2E001F"/>
<path d="M18.8139 21.525L24.2979 32.1007C24.3957 32.2574 24.3374 32.4159 24.1795 32.4159H20.771C20.5548 32.4159 20.4571 32.3574 20.3593 32.1611C19.1053 29.5662 17.8326 26.9714 16.5203 24.1802H16.4809C15.3059 26.8147 14.0124 29.587 12.7603 32.1819C12.6626 32.3385 12.5648 32.3989 12.4069 32.3989H9.17894C8.98342 32.3989 8.96274 32.2423 9.06238 32.1234L14.4279 21.8609L9.2391 11.4814C9.12066 11.3248 9.2391 11.2059 9.35566 11.2059H12.7246C12.9201 11.2059 12.9991 11.2455 13.0762 11.4229C14.3095 14.0178 15.5634 16.6919 16.7384 19.3057H16.7779C17.9134 16.7108 19.1674 14.0178 20.3819 11.4418C20.4796 11.2851 20.5379 11.187 20.7353 11.187H23.8881C24.0441 11.187 24.1043 11.3059 24.0065 11.4625L18.8139 21.525ZM25.2586 24.7294C25.2586 20.1492 28.2948 16.5711 33.1113 16.5711C33.5231 16.5711 33.7374 16.5711 34.1303 16.6108V11.4022C34.1303 11.2833 34.2281 11.2059 34.3258 11.2059H37.4203C37.5763 11.2059 37.6158 11.2644 37.6158 11.3625V29.4096C37.6158 29.9399 37.6158 30.608 37.7136 31.3364C37.7136 31.4553 37.6741 31.4931 37.5575 31.5534C35.9125 32.3404 34.1886 32.6933 32.5436 32.6933C28.2929 32.7103 25.2567 30.0777 25.2586 24.7294ZM34.1284 19.6982C33.8539 19.5793 33.4629 19.5019 32.9929 19.5019C30.5245 19.5019 28.8024 21.408 28.8024 24.5747C28.8024 28.1924 30.5658 29.6474 32.7786 29.6474C33.2486 29.6474 33.7581 29.5889 34.1303 29.4304V19.6982H34.1284Z" fill="#FFD9F2"/>
</svg>
