<svg width="16" height="13" viewBox="0 0 16 13" fill="none" xmlns="http://www.w3.org/2000/svg">
<path d="M15.7453 5.7454L9.96818 0.243267C9.80327 0.0862088 9.58347 0 9.34911 0C9.11449 0 8.89482 0.0863327 8.72991 0.243267L8.20539 0.742932C8.04061 0.899743 7.94983 1.1092 7.94983 1.33252C7.94983 1.55572 8.04061 1.77224 8.20539 1.92905L11.5757 5.1459H0.868131C0.385362 5.1459 0.00390625 5.50585 0.00390625 5.96575V6.67214C0.00390625 7.13205 0.385362 7.52829 0.868131 7.52829H11.6139L8.20552 10.7631C8.04074 10.9202 7.94996 11.1239 7.94996 11.3472C7.94996 11.5703 8.04074 11.777 8.20552 11.934L8.73004 12.432C8.89495 12.5891 9.11462 12.6747 9.34924 12.6747C9.5836 12.6747 9.8034 12.588 9.96831 12.4309L15.7454 6.92891C15.9107 6.77136 16.0016 6.56104 16.001 6.33747C16.0015 6.11315 15.9107 5.90271 15.7453 5.7454Z" fill="white"/>
</svg>
