<svg width="266" height="636" viewBox="0 0 266 636" fill="none" xmlns="http://www.w3.org/2000/svg">
<path d="M-24.9084 633.519C-24.9084 633.519 10.7053 538.474 115.481 547.765C232.963 558.193 275.585 448.337 241.89 377.566C208.095 306.802 101.79 319.166 89.0642 181.112C76.0276 39.9723 -60.1887 19.3958 -60.1887 19.3958" stroke="white" stroke-opacity="0.2" stroke-width="2" stroke-miterlimit="10"/>
<path d="M-63.4032 529.097C-63.4032 529.097 22.4684 483.145 111.537 491.402C200.612 499.759 206.585 434.501 194.459 409.569C169.475 357.749 54.4393 355.273 41.1894 269.776C31.192 205.508 69.4543 115.495 -33.9572 76.2423" stroke="white" stroke-opacity="0.2" stroke-width="2" stroke-miterlimit="10"/>
<path d="M-26.9292 483.408C-26.9292 483.408 64.5405 491.601 44.0425 429.152C20.5171 357.587 -22.9069 361.652 11.9086 266.662C24.3353 232.838 19.6139 100.452 -59.1815 132.59" stroke="white" stroke-opacity="0.2" stroke-width="2" stroke-miterlimit="10"/>
<path d="M164.075 424.07C165.117 439.333 147.736 452.949 125.255 454.483C102.774 456.017 83.7059 444.887 82.6646 429.624C81.6234 414.361 99.0037 400.745 121.485 399.212C143.966 397.678 163.034 408.808 164.075 424.07Z" stroke="white" stroke-opacity="0.2" stroke-width="2" stroke-miterlimit="10"/>
</svg>
