<svg width="140" height="64" viewBox="0 0 140 64" fill="none" xmlns="http://www.w3.org/2000/svg">
<path d="M14.517 36.2335H6.74329L5.04391 41.451H0L7.80989 19.8589H13.7035L21.5315 41.451H16.2706L14.517 36.2335ZM7.95456 32.3159H13.3058L10.594 24.282L7.95456 32.3159Z" fill="white"/>
<path d="M32.4879 35.4211L28.3117 27.3692V41.451H23.6113V19.8589H28.9626L34.6031 30.8716L40.0628 19.8589H45.3959V41.451H40.6774V27.2248L36.5194 35.4211H32.4879Z" fill="white"/>
<path d="M76.9777 19.8589L86.5775 33.5435V19.8589H91.3141V41.451H87.1744L77.683 27.8928V41.451H72.9102V19.8589H76.9777Z" fill="white"/>
<path d="M99.8651 19.8589V41.451H94.8574V19.8589H99.8651Z" fill="white"/>
<path d="M116.443 36.2335H108.669L106.97 41.451H101.926L109.736 19.8589H115.629L123.457 41.451H118.197L116.443 36.2335ZM109.88 32.3159H115.232L112.538 24.282L109.88 32.3159Z" fill="white"/>
<path d="M129.497 31.9909C129.497 36.3599 130.401 37.2987 134.324 37.2987C135.626 37.2987 137 37.3348 140.001 37.2445L139.187 41.451C136.675 41.5413 135.39 41.5052 134.053 41.5052C126.821 41.5052 124.309 39.0499 124.309 31.8826V29.3732C124.309 22.2781 126.984 19.7867 134.053 19.7867C135.3 19.7867 136.855 19.7506 139.82 19.8409L139.006 24.0473C137.524 24.0113 135.825 23.9932 134.27 23.9932C130.292 23.9932 129.497 24.8778 129.497 29.301V31.9909Z" fill="white"/>
<path d="M67.6323 43.8883L64.1432 39.5013L67.2527 37.0279L70.7418 41.415C69.4944 41.9385 68.4278 42.8051 67.6323 43.8883ZM63.7996 22.5851L76.2012 8.46713L79.1841 11.085L66.7826 25.2028L63.7996 22.5851ZM50.8554 23.7585L40.2434 10.3989L43.3529 7.92554L53.9649 21.2852L50.8554 23.7585ZM38.5078 51.3625L50.982 37.1904L53.9649 39.8082L41.4908 53.9803L38.5078 51.3625Z" fill="white"/>
<path d="M39.6816 0C36.4456 0 33.8242 2.61777 33.8242 5.84937C33.8242 9.08092 36.4456 11.6987 39.6816 11.6987C42.9177 11.6987 45.5391 9.08092 45.5391 5.84937C45.5391 2.61777 42.9177 0 39.6816 0ZM39.6816 7.81719C38.5969 7.81719 37.7111 6.93258 37.7111 5.84937C37.7111 4.76615 38.5969 3.88152 39.6816 3.88152C40.7663 3.88152 41.6522 4.76615 41.6522 5.84937C41.6522 6.93258 40.7663 7.81719 39.6816 7.81719Z" fill="white"/>
<path d="M80.2874 0C77.0509 0 74.4297 2.61777 74.4297 5.84937C74.4297 9.08092 77.0509 11.6987 80.2874 11.6987C83.5232 11.6987 86.1448 9.08092 86.1448 5.84937C86.1448 2.61777 83.5232 0 80.2874 0ZM80.2874 7.81719C79.202 7.81719 78.3169 6.93258 78.3169 5.84937C78.3169 4.76615 79.202 3.88152 80.2874 3.88152C81.372 3.88152 82.258 4.76615 82.258 5.84937C82.258 6.93258 81.372 7.81719 80.2874 7.81719Z" fill="white"/>
<path d="M36.6095 49.0515C32.4695 49.0515 29.125 52.3915 29.125 56.5257C29.125 60.66 32.4695 63.9999 36.6095 63.9999C40.7314 63.9999 44.0939 60.66 44.0939 56.5257C44.0759 52.4095 40.7314 49.0515 36.6095 49.0515ZM36.6095 59.8656C34.7655 59.8656 33.2649 58.3672 33.2649 56.5257C33.2649 54.6843 34.7655 53.1858 36.6095 53.1858C38.4534 53.1858 39.954 54.6843 39.954 56.5257C39.954 58.3853 38.4534 59.8656 36.6095 59.8656Z" fill="white"/>
<path d="M73.0001 39.4651C68.8601 39.4651 65.5156 42.805 65.5156 46.9392C65.5156 51.0735 68.8601 54.4135 73.0001 54.4135C77.1398 54.4135 80.4848 51.0735 80.4848 46.9392C80.4848 42.805 77.1398 39.4651 73.0001 39.4651ZM73.217 50.2791C71.373 50.2791 69.8726 48.7807 69.8726 46.9392C69.8726 45.0978 71.373 43.5993 73.217 43.5993C75.0611 43.5993 76.5618 45.0978 76.5618 46.9392C76.5618 48.7807 75.0611 50.2791 73.217 50.2791Z" fill="white"/>
<path d="M59.0977 19.1729C52.5894 19.1729 47.3105 24.4445 47.3105 30.9438C47.3105 37.4431 52.5894 42.7148 59.0977 42.7148C65.606 42.7148 70.8849 37.4431 70.8849 30.9438C70.8849 24.4445 65.606 19.1729 59.0977 19.1729ZM59.0977 37.8584C55.2832 37.8584 52.1737 34.7712 52.1737 30.9438C52.1737 27.1345 55.265 24.0292 59.0977 24.0292C62.9123 24.0292 66.0218 27.1165 66.0218 30.9438C66.0218 34.7531 62.9123 37.8584 59.0977 37.8584Z" fill="#76C4EE"/>
</svg>
