<svg width="268" height="920" viewBox="0 0 268 920" fill="none" xmlns="http://www.w3.org/2000/svg">
<path d="M159.983 595.376L151.058 576.032L164.752 569.686L173.676 589.031C168.608 589.884 163.876 592.094 159.983 595.376ZM165.004 513.297L223.404 472.287L232.066 484.616L173.674 525.599L165.004 513.297ZM116.223 506.046L89.096 447.201L102.79 440.856L129.89 499.693L116.223 506.046ZM45.8973 596.958L104.575 555.755L113.238 568.084L54.5665 609.261L45.8973 596.958Z" fill="white"/>
<path d="M96.3661 408.245C84.4556 405.35 72.432 412.681 69.5272 424.632C66.6224 436.583 73.9397 448.615 85.8776 451.517C97.8154 454.418 109.839 447.088 112.744 435.137C115.621 423.179 108.304 411.147 96.3661 408.245ZM89.3467 437.125C85.331 436.149 82.8985 432.111 83.869 428.118C84.8461 424.098 88.888 421.634 92.8763 422.603C96.892 423.579 99.3518 427.624 98.3747 431.644C97.4042 435.637 93.3624 438.101 89.3467 437.125Z" fill="white"/>
<path d="M246.013 444.619C234.102 441.724 222.079 449.054 219.174 461.005C216.269 472.957 223.586 484.988 235.497 487.883C247.435 490.785 259.458 483.454 262.363 471.503C265.268 459.552 257.95 447.52 246.013 444.619ZM238.993 473.498C234.977 472.522 232.545 468.484 233.516 464.491C234.493 460.471 238.534 458.007 242.523 458.976C246.539 459.952 248.998 463.997 248.021 468.017C247.051 472.01 243.009 474.474 238.993 473.498Z" fill="white"/>
<path d="M40.9776 586.726C25.7617 583.028 10.4095 592.388 6.70702 607.621C3.00453 622.854 12.3476 638.216 27.5636 641.914C42.7795 645.613 58.1317 636.253 61.8342 621.02C65.5367 605.787 56.1936 590.424 40.9776 586.726ZM31.2661 626.682C24.4639 625.028 20.2885 618.163 21.9437 611.353C23.5988 604.543 30.4597 600.36 37.2618 602.014C44.0639 603.667 48.2394 610.532 46.5842 617.342C44.963 624.131 38.0682 628.335 31.2661 626.682Z" fill="white"/>
<path d="M183.722 583.884C168.506 580.186 153.154 589.546 149.451 604.779C145.749 620.012 155.092 635.374 170.308 639.073C185.524 642.771 200.876 633.411 204.578 618.178C208.281 602.945 198.938 587.583 183.722 583.884ZM174.782 623.998C167.98 622.345 163.804 615.479 165.459 608.67C167.115 601.86 173.975 597.677 180.778 599.33C187.58 600.984 191.755 607.849 190.1 614.659C188.472 621.475 181.611 625.658 174.782 623.998Z" fill="white"/>
<path d="M150.722 496.473C126.737 490.644 102.554 505.388 96.7247 529.372C90.8884 553.384 105.606 577.583 129.591 583.413C153.576 589.243 177.731 574.492 183.568 550.48C189.397 526.496 174.707 502.303 150.722 496.473ZM133.951 565.473C119.855 562.046 111.215 547.84 114.645 533.728C118.068 519.644 132.266 510.988 146.362 514.414C160.43 517.833 169.071 532.04 165.647 546.124C162.217 560.236 148.02 568.892 133.951 565.473Z" fill="#5CC3F6"/>
<path d="M211.499 783V780.883L209.502 781.585L69.5019 830.785L68.4993 831.137V832.2L68.4993 866.4V867.464L69.5037 867.816L209.504 916.816L211.499 917.514V915.4V885.6V884.519L210.474 884.177L186.299 876.119V822.481L210.474 814.423L211.499 814.081V813L211.499 783ZM68.4992 660.806V661.652L69.2235 662.09L133.304 700.809L69.2207 739.724L68.4992 740.162V741.006L68.4992 769.406L68.4992 770.906H69.9992L209.999 770.906H211.499V769.406V741.806V740.306H209.999H124.753L184.979 703.688L185.699 703.25V702.406V699.206V698.361L184.977 697.923L124.568 661.306H209.999H211.499V659.806V632.406V630.906H209.999H69.9992H68.4992L68.4992 632.406L68.4992 660.806ZM192.867 487.467L192.86 487.46C178.371 472.971 160.787 465.82 139.999 465.82C119.216 465.82 101.628 472.968 87.3363 487.462C72.8508 501.948 65.6992 519.531 65.6992 540.12C65.6992 560.71 72.8516 578.294 87.3386 592.781C101.629 607.072 119.215 614.22 139.999 614.22C160.785 614.22 178.366 607.071 192.852 592.788L192.86 592.781L192.867 592.773C207.148 578.289 214.299 560.709 214.299 540.12C214.299 519.532 207.148 501.952 192.867 487.467ZM150.655 368.422L69.1369 425.694L68.4992 426.142V426.922L68.4992 447.922L68.4992 449.422H69.9992H209.999H211.499V447.922L211.499 420.322V418.822H209.999H129.153L210.86 361.55L211.499 361.102V360.322V339.322V337.822H209.999H69.9992H68.4992L68.4992 339.322L68.4992 366.922L68.4992 368.422H69.9992H150.655ZM209.999 314.851H211.499V313.351V285.751V284.251H209.999H69.9992H68.4992L68.4992 285.751L68.4992 313.351L68.4992 314.851H69.9992H209.999ZM211.499 139.836V137.719L209.502 138.421L69.5019 187.621L68.4992 187.973V189.036L68.4992 223.236V224.3L69.5037 224.652L209.504 273.652L211.499 274.35V272.236V242.436V241.355L210.474 241.013L186.299 232.955V179.317L210.474 171.259L211.499 170.917V169.836V139.836ZM180.565 3.43061L179.262 2.65635L178.502 3.9678L164.702 27.7678L163.927 29.1044L165.285 29.8395C176.926 36.1369 184.299 49.3801 184.299 64.9202C184.299 78.18 180.219 88.7677 171.957 96.841C163.668 104.742 153.054 108.82 139.999 108.82C126.741 108.82 116.128 104.74 107.841 96.8408C99.5789 88.7676 95.4992 78.18 95.4992 64.9202C95.4992 49.3964 102.661 36.5352 114.728 29.8314L116.063 29.0895L115.297 27.7678L101.497 3.9678L100.736 2.65636L99.4331 3.43061C78.7524 15.7162 65.6992 39.0216 65.6992 64.9202C65.6992 86.2894 72.8379 104.083 87.1422 118.185C101.246 132.287 119.038 139.22 139.999 139.22C160.969 139.22 178.555 132.282 192.852 118.188C207.159 104.086 214.299 86.2913 214.299 64.9202C214.299 38.8192 201.244 15.715 180.565 3.43061ZM157.499 866.314L106.513 849.2L157.499 832.086V866.314ZM171.939 571.26C163.644 579.554 153.037 583.82 139.999 583.82C126.962 583.82 116.354 579.554 108.06 571.26C99.7536 562.953 95.4992 552.54 95.4992 540.12C95.4992 527.7 99.7536 517.287 108.06 508.981C116.354 500.686 126.962 496.42 139.999 496.42C153.037 496.42 163.644 500.686 171.939 508.981C180.233 517.275 184.299 527.682 184.299 540.12C184.299 552.558 180.233 562.965 171.939 571.26ZM157.499 223.15L106.513 206.036L157.499 188.922V223.15Z" stroke="white" stroke-opacity="0.1" stroke-width="3"/>
</svg>
