<svg width="30" height="50" viewBox="0 0 30 50" fill="none" xmlns="http://www.w3.org/2000/svg">
<path d="M14.7072 0C6.59752 0 0 6.59752 0 14.7072V35.2928C0 43.4025 6.59752 50 14.7072 50C22.8168 50 29.4144 43.4025 29.4144 35.2928V14.7072C29.4144 6.59752 22.8168 0 14.7072 0ZM26.4145 35.2928C26.4145 41.748 21.1624 47.0001 14.7072 47.0001C8.25195 47.0001 2.99988 41.748 2.99988 35.2928V14.7072C2.99988 8.25195 8.25195 2.99988 14.7072 2.99988C21.1624 2.99988 26.4145 8.25195 26.4145 14.7072V35.2928Z" fill="white"/>
<path d="M14.707 9.94653C13.8784 9.94653 13.207 10.6179 13.207 11.4465V18.3503C13.207 19.1785 13.8784 19.8503 14.707 19.8503C15.5351 19.8503 16.2069 19.1785 16.2069 18.3503V11.4465C16.2069 10.6179 15.5355 9.94653 14.707 9.94653Z" fill="white"/>
</svg>
