<svg width="11" height="18" viewBox="0 0 11 18" fill="none" xmlns="http://www.w3.org/2000/svg">
<path d="M1.10858 9.32589L8.8115 17.0288C8.9894 17.2054 9.22988 17.3044 9.48051 17.3044C9.73115 17.3044 9.97162 17.2054 10.1495 17.0288L10.7156 16.4604C10.8927 16.2828 10.9922 16.0422 10.9922 15.7914C10.9922 15.5406 10.8927 15.3 10.7156 15.1224L4.2501 8.64986L10.7156 2.17969C10.8922 2.00179 10.9912 1.76132 10.9912 1.51068C10.9912 1.26004 10.8922 1.01957 10.7156 0.841673L10.1495 0.275591C9.97161 0.0990354 9.73115 -4.18514e-05 9.48051 -4.18295e-05C9.22988 -4.18076e-05 8.98939 0.0990354 8.8115 0.275591L1.09221 7.99489C0.915365 8.17358 0.816161 8.41483 0.816161 8.66624C0.816161 8.91764 0.915365 9.15889 1.09221 9.33758L1.10858 9.32589Z" fill="#4D5154"/>
</svg>
