<svg width="11" height="18" viewBox="0 0 11 18" fill="none" xmlns="http://www.w3.org/2000/svg">
<path d="M10.7 7.97856L2.99709 0.275634C2.8192 0.0990769 2.57872 0 2.32808 0C2.07744 0 1.83698 0.0990769 1.65908 0.275634L1.09299 0.844055C0.915866 1.02165 0.816406 1.26224 0.816406 1.51306C0.816406 1.76389 0.915866 2.00447 1.09299 2.18207L7.55849 8.65458L1.09299 15.1248C0.916435 15.3027 0.81737 15.5431 0.81737 15.7938C0.81737 16.0444 0.916435 16.2849 1.09299 16.4628L1.65908 17.0289C1.83698 17.2054 2.07744 17.3045 2.32808 17.3045C2.57872 17.3045 2.8192 17.2054 2.99709 17.0289L10.7164 9.30955C10.8932 9.13086 10.9924 8.88961 10.9924 8.63821C10.9924 8.3868 10.8932 8.14555 10.7164 7.96686L10.7 7.97856Z" fill="#4D5154"/>
</svg>
