<svg width="22" height="11" viewBox="0 0 22 11" fill="none" xmlns="http://www.w3.org/2000/svg">
<path d="M15.5857 8.665L15.5152 8.59413C15.1702 8.93746 15.1689 9.49543 15.5122 9.84039C15.8556 10.1854 16.4135 10.1867 16.7585 9.84338L20.8402 5.7814L20.8407 5.78089L15.5857 8.665ZM15.5857 8.665L15.5152 8.59412L18.0842 6.03751L1.78125 6.03751C1.29454 6.03751 0.9 5.64297 0.9 5.15626C0.9 4.66955 1.29454 4.27501 1.78125 4.27501L18.0842 4.27501L15.5152 1.7184L15.5857 1.64751L15.5152 1.71839C15.1702 1.37506 15.1689 0.817094 15.5122 0.47213C15.8556 0.127073 16.4136 0.125896 16.7585 0.469134L20.8363 4.52723L20.8407 4.53163L15.5857 8.665ZM20.8415 4.53247L20.8408 4.53173L20.8415 4.53247ZM20.8415 4.53247C21.1863 4.87653 21.1856 5.43511 20.8429 5.7786L20.8415 4.53247Z" fill="white" stroke="white" stroke-width="0.2"/>
</svg>
